<svg xmlns="http://www.w3.org/2000/svg" xmlns:xlink="http://www.w3.org/1999/xlink" width="1080" zoomAndPan="magnify" viewBox="0 0 810 809.999993" height="1080" preserveAspectRatio="xMidYMid meet" version="1.0"><defs><clipPath id="ef19db8fa9"><path d="M 0 135.167969 L 810 135.167969 L 810 675 L 0 675 Z M 0 135.167969 " clip-rule="nonzero"/></clipPath></defs><g clip-path="url(#ef19db8fa9)"><path fill="#ffffff" d="M 653.074219 338.753906 C 630.105469 222.695312 527.804688 135.167969 405 135.167969 C 307.457031 135.167969 222.964844 190.449219 180.769531 271.296875 C 79.28125 282.226562 0.253906 368.097656 0.253906 472.457031 C 0.253906 584.234375 90.851562 674.828125 202.628906 674.828125 L 641.101562 674.828125 C 734.226562 674.828125 809.746094 599.308594 809.746094 506.183594 C 809.746094 417.140625 740.535156 344.996094 653.074219 338.753906 Z M 405 607.371094 L 258.851562 461.226562 C 250.554688 452.925781 256.425781 438.726562 268.164062 438.726562 L 337.542969 438.726562 L 337.542969 320.675781 C 337.542969 311.367188 345.097656 303.8125 354.40625 303.8125 L 455.59375 303.8125 C 464.902344 303.8125 472.457031 311.367188 472.457031 320.675781 L 472.457031 438.726562 L 541.835938 438.726562 C 553.574219 438.726562 559.445312 452.925781 551.148438 461.226562 Z M 405 607.371094 " fill-opacity="1" fill-rule="nonzero"/></g></svg>