<?xml version="1.0" encoding="UTF-8"?>
<svg xmlns="http://www.w3.org/2000/svg" xmlns:xlink="http://www.w3.org/1999/xlink" width="500px" height="375px" viewBox="0 0 500 375" version="1.1">
<defs>
<clipPath id="clip1">
  <path d="M 177.082031 21.414062 L 335.285156 21.414062 L 335.285156 298 L 177.082031 298 Z M 177.082031 21.414062 "/>
</clipPath>
<clipPath id="clip2">
  <path d="M 123.984375 267.578125 L 238 267.578125 L 238 353.515625 L 123.984375 353.515625 Z M 123.984375 267.578125 "/>
</clipPath>
<clipPath id="clip3">
  <path d="M 284.503906 207.683594 L 321.613281 207.683594 L 321.613281 250.652344 L 284.503906 250.652344 Z M 284.503906 207.683594 "/>
</clipPath>
<clipPath id="clip4">
  <path d="M 284.753906 241.613281 L 295.996094 207.699219 L 321.429688 216.132812 L 310.1875 250.042969 Z M 284.753906 241.613281 "/>
</clipPath>
<clipPath id="clip5">
  <path d="M 9.34375 342.375 L 88.746094 102.878906 L 404.542969 207.578125 L 325.140625 447.074219 Z M 9.34375 342.375 "/>
</clipPath>
<clipPath id="clip6">
  <path d="M 284.503906 207.683594 L 305 207.683594 L 305 250.652344 L 284.503906 250.652344 Z M 284.503906 207.683594 "/>
</clipPath>
<clipPath id="clip7">
  <path d="M 284.753906 241.613281 L 295.996094 207.699219 L 321.429688 216.132812 L 310.1875 250.042969 Z M 284.753906 241.613281 "/>
</clipPath>
<clipPath id="clip8">
  <path d="M 9.34375 342.375 L 88.746094 102.878906 L 404.542969 207.578125 L 325.140625 447.074219 Z M 9.34375 342.375 "/>
</clipPath>
<clipPath id="clip9">
  <path d="M 284.503906 207.683594 L 307.292969 207.683594 L 307.292969 250.652344 L 284.503906 250.652344 Z M 284.503906 207.683594 "/>
</clipPath>
<clipPath id="clip10">
  <path d="M 284.753906 241.613281 L 295.996094 207.699219 L 321.429688 216.132812 L 310.1875 250.042969 Z M 284.753906 241.613281 "/>
</clipPath>
<clipPath id="clip11">
  <path d="M 9.34375 342.375 L 88.746094 102.878906 L 404.542969 207.578125 L 325.140625 447.074219 Z M 9.34375 342.375 "/>
</clipPath>
<clipPath id="clip12">
  <path d="M 302.734375 207.683594 L 339.84375 207.683594 L 339.84375 250.652344 L 302.734375 250.652344 Z M 302.734375 207.683594 "/>
</clipPath>
<clipPath id="clip13">
  <path d="M 302.917969 241.613281 L 314.160156 207.699219 L 339.59375 216.132812 L 328.351562 250.042969 Z M 302.917969 241.613281 "/>
</clipPath>
<clipPath id="clip14">
  <path d="M 27.507812 342.375 L 106.910156 102.878906 L 422.707031 207.578125 L 343.304688 447.074219 Z M 27.507812 342.375 "/>
</clipPath>
<clipPath id="clip15">
  <path d="M 302.734375 207.683594 L 323.566406 207.683594 L 323.566406 250.652344 L 302.734375 250.652344 Z M 302.734375 207.683594 "/>
</clipPath>
<clipPath id="clip16">
  <path d="M 302.917969 241.613281 L 314.160156 207.699219 L 339.59375 216.132812 L 328.351562 250.042969 Z M 302.917969 241.613281 "/>
</clipPath>
<clipPath id="clip17">
  <path d="M 27.507812 342.375 L 106.910156 102.878906 L 422.707031 207.578125 L 343.304688 447.074219 Z M 27.507812 342.375 "/>
</clipPath>
<clipPath id="clip18">
  <path d="M 302.734375 207.683594 L 325.519531 207.683594 L 325.519531 250.652344 L 302.734375 250.652344 Z M 302.734375 207.683594 "/>
</clipPath>
<clipPath id="clip19">
  <path d="M 302.917969 241.613281 L 314.160156 207.699219 L 339.59375 216.132812 L 328.351562 250.042969 Z M 302.917969 241.613281 "/>
</clipPath>
<clipPath id="clip20">
  <path d="M 27.507812 342.375 L 106.910156 102.878906 L 422.707031 207.578125 L 343.304688 447.074219 Z M 27.507812 342.375 "/>
</clipPath>
<clipPath id="clip21">
  <path d="M 263.671875 204.425781 L 341 204.425781 L 341 294.921875 L 263.671875 294.921875 Z M 263.671875 204.425781 "/>
</clipPath>
<clipPath id="clip22">
  <path d="M 263.960938 277.03125 L 287.847656 204.96875 L 340.835938 222.535156 L 316.945312 294.597656 Z M 263.960938 277.03125 "/>
</clipPath>
<clipPath id="clip23">
  <path d="M -326.695312 493.132812 L -156.648438 -19.773438 L 519.453125 204.382812 L 349.40625 717.285156 Z M -326.695312 493.132812 "/>
</clipPath>
<clipPath id="clip24">
  <path d="M 263.671875 204.425781 L 307.292969 204.425781 L 307.292969 294.921875 L 263.671875 294.921875 Z M 263.671875 204.425781 "/>
</clipPath>
<clipPath id="clip25">
  <path d="M 263.960938 277.03125 L 287.847656 204.96875 L 340.835938 222.535156 L 316.945312 294.597656 Z M 263.960938 277.03125 "/>
</clipPath>
<clipPath id="clip26">
  <path d="M -326.695312 493.132812 L -156.648438 -19.773438 L 519.453125 204.382812 L 349.40625 717.285156 Z M -326.695312 493.132812 "/>
</clipPath>
<clipPath id="clip27">
  <path d="M 263.671875 204.425781 L 311.847656 204.425781 L 311.847656 294.921875 L 263.671875 294.921875 Z M 263.671875 204.425781 "/>
</clipPath>
<clipPath id="clip28">
  <path d="M 263.960938 277.03125 L 287.847656 204.96875 L 340.835938 222.535156 L 316.945312 294.597656 Z M 263.960938 277.03125 "/>
</clipPath>
<clipPath id="clip29">
  <path d="M -326.695312 493.132812 L -156.648438 -19.773438 L 519.453125 204.382812 L 349.40625 717.285156 Z M -326.695312 493.132812 "/>
</clipPath>
<clipPath id="clip30">
  <path d="M 310.546875 186.199219 L 347.65625 186.199219 L 347.65625 229.167969 L 310.546875 229.167969 Z M 310.546875 186.199219 "/>
</clipPath>
<clipPath id="clip31">
  <path d="M 310.957031 220.640625 L 322.199219 186.730469 L 347.632812 195.164062 L 336.390625 229.074219 Z M 310.957031 220.640625 "/>
</clipPath>
<clipPath id="clip32">
  <path d="M 35.546875 321.40625 L 114.945312 81.910156 L 430.746094 186.605469 L 351.34375 426.105469 Z M 35.546875 321.40625 "/>
</clipPath>
<clipPath id="clip33">
  <path d="M 310.546875 186.199219 L 331.378906 186.199219 L 331.378906 229.167969 L 310.546875 229.167969 Z M 310.546875 186.199219 "/>
</clipPath>
<clipPath id="clip34">
  <path d="M 310.957031 220.640625 L 322.199219 186.730469 L 347.632812 195.164062 L 336.390625 229.074219 Z M 310.957031 220.640625 "/>
</clipPath>
<clipPath id="clip35">
  <path d="M 35.546875 321.40625 L 114.945312 81.910156 L 430.746094 186.605469 L 351.34375 426.105469 Z M 35.546875 321.40625 "/>
</clipPath>
<clipPath id="clip36">
  <path d="M 310.546875 186.199219 L 333.332031 186.199219 L 333.332031 229.167969 L 310.546875 229.167969 Z M 310.546875 186.199219 "/>
</clipPath>
<clipPath id="clip37">
  <path d="M 310.957031 220.640625 L 322.199219 186.730469 L 347.632812 195.164062 L 336.390625 229.074219 Z M 310.957031 220.640625 "/>
</clipPath>
<clipPath id="clip38">
  <path d="M 35.546875 321.40625 L 114.945312 81.910156 L 430.746094 186.605469 L 351.34375 426.105469 Z M 35.546875 321.40625 "/>
</clipPath>
<clipPath id="clip39">
  <path d="M 314 170 L 357 170 L 357 215.496094 L 314 215.496094 Z M 314 170 "/>
</clipPath>
<clipPath id="clip40">
  <path d="M 314.257812 199.417969 L 335.167969 170.453125 L 356.894531 186.140625 L 335.980469 215.105469 Z M 314.257812 199.417969 "/>
</clipPath>
<clipPath id="clip41">
  <path d="M 21.296875 212.777344 L 168.988281 8.203125 L 438.734375 202.953125 L 291.042969 407.523438 Z M 21.296875 212.777344 "/>
</clipPath>
<clipPath id="clip42">
  <path d="M 314 170 L 319.660156 170 L 319.660156 215.496094 L 314 215.496094 Z M 314 170 "/>
</clipPath>
<clipPath id="clip43">
  <path d="M 314.257812 199.417969 L 335.167969 170.453125 L 356.894531 186.140625 L 335.980469 215.105469 Z M 314.257812 199.417969 "/>
</clipPath>
<clipPath id="clip44">
  <path d="M 21.296875 212.777344 L 168.988281 8.203125 L 438.734375 202.953125 L 291.042969 407.523438 Z M 21.296875 212.777344 "/>
</clipPath>
<clipPath id="clip45">
  <path d="M 261.066406 302.734375 L 307.292969 302.734375 L 307.292969 341 L 261.066406 341 Z M 261.066406 302.734375 "/>
</clipPath>
<clipPath id="clip46">
  <path d="M 264.855469 302.90625 L 307.039062 307.433594 L 303.464844 340.738281 L 261.28125 336.207031 Z M 264.855469 302.90625 "/>
</clipPath>
<clipPath id="clip47">
  <path d="M 72.132812 -1.84375 L 380.730469 31.292969 L 337.105469 437.578125 L 28.507812 404.4375 Z M 72.132812 -1.84375 "/>
</clipPath>
<clipPath id="clip48">
  <path d="M 261.066406 302.734375 L 307.292969 302.734375 L 307.292969 339.84375 L 261.066406 339.84375 Z M 261.066406 302.734375 "/>
</clipPath>
<clipPath id="clip49">
  <path d="M 264.855469 302.90625 L 307.039062 307.433594 L 303.464844 340.738281 L 261.28125 336.207031 Z M 264.855469 302.90625 "/>
</clipPath>
<clipPath id="clip50">
  <path d="M 72.132812 -1.84375 L 380.730469 31.292969 L 337.105469 437.578125 L 28.507812 404.4375 Z M 72.132812 -1.84375 "/>
</clipPath>
<clipPath id="clip51">
  <path d="M 261.066406 302.734375 L 307.292969 302.734375 L 307.292969 341 L 261.066406 341 Z M 261.066406 302.734375 "/>
</clipPath>
<clipPath id="clip52">
  <path d="M 264.855469 302.90625 L 307.039062 307.433594 L 303.464844 340.738281 L 261.28125 336.207031 Z M 264.855469 302.90625 "/>
</clipPath>
<clipPath id="clip53">
  <path d="M 72.132812 -1.84375 L 380.730469 31.292969 L 337.105469 437.578125 L 28.507812 404.4375 Z M 72.132812 -1.84375 "/>
</clipPath>
<clipPath id="clip54">
  <path d="M 299.480469 312.5 L 315 312.5 L 315 330.730469 L 299.480469 330.730469 Z M 299.480469 312.5 "/>
</clipPath>
<clipPath id="clip55">
  <path d="M 299.871094 327.6875 L 303.789062 312.554688 L 314.59375 315.351562 L 310.679688 330.484375 Z M 299.871094 327.6875 "/>
</clipPath>
<clipPath id="clip56">
  <path d="M 188.394531 377.144531 L 214.695312 275.546875 L 348.714844 310.242188 L 322.414062 411.839844 Z M 188.394531 377.144531 "/>
</clipPath>
<clipPath id="clip57">
  <path d="M 299.480469 312.5 L 309.894531 312.5 L 309.894531 330.730469 L 299.480469 330.730469 Z M 299.480469 312.5 "/>
</clipPath>
<clipPath id="clip58">
  <path d="M 299.871094 327.6875 L 303.789062 312.554688 L 314.59375 315.351562 L 310.679688 330.484375 Z M 299.871094 327.6875 "/>
</clipPath>
<clipPath id="clip59">
  <path d="M 188.394531 377.144531 L 214.695312 275.546875 L 348.714844 310.242188 L 322.414062 411.839844 Z M 188.394531 377.144531 "/>
</clipPath>
<clipPath id="clip60">
  <path d="M 299.480469 312.5 L 311.847656 312.5 L 311.847656 330.730469 L 299.480469 330.730469 Z M 299.480469 312.5 "/>
</clipPath>
<clipPath id="clip61">
  <path d="M 299.871094 327.6875 L 303.789062 312.554688 L 314.59375 315.351562 L 310.679688 330.484375 Z M 299.871094 327.6875 "/>
</clipPath>
<clipPath id="clip62">
  <path d="M 188.394531 377.144531 L 214.695312 275.546875 L 348.714844 310.242188 L 322.414062 411.839844 Z M 188.394531 377.144531 "/>
</clipPath>
<clipPath id="clip63">
  <path d="M 254 306.640625 L 269 306.640625 L 269 324.871094 L 254 324.871094 Z M 254 306.640625 "/>
</clipPath>
<clipPath id="clip64">
  <path d="M 254.183594 321.882812 L 258.101562 306.75 L 268.90625 309.546875 L 264.992188 324.679688 Z M 254.183594 321.882812 "/>
</clipPath>
<clipPath id="clip65">
  <path d="M 142.707031 371.339844 L 169.007812 269.742188 L 303.027344 304.4375 L 276.726562 406.035156 Z M 142.707031 371.339844 "/>
</clipPath>
<clipPath id="clip66">
  <path d="M 254 306.640625 L 264 306.640625 L 264 324.871094 L 254 324.871094 Z M 254 306.640625 "/>
</clipPath>
<clipPath id="clip67">
  <path d="M 254.183594 321.882812 L 258.101562 306.75 L 268.90625 309.546875 L 264.992188 324.679688 Z M 254.183594 321.882812 "/>
</clipPath>
<clipPath id="clip68">
  <path d="M 142.707031 371.339844 L 169.007812 269.742188 L 303.027344 304.4375 L 276.726562 406.035156 Z M 142.707031 371.339844 "/>
</clipPath>
<clipPath id="clip69">
  <path d="M 254 306.640625 L 266 306.640625 L 266 324.871094 L 254 324.871094 Z M 254 306.640625 "/>
</clipPath>
<clipPath id="clip70">
  <path d="M 254.183594 321.882812 L 258.101562 306.75 L 268.90625 309.546875 L 264.992188 324.679688 Z M 254.183594 321.882812 "/>
</clipPath>
<clipPath id="clip71">
  <path d="M 142.707031 371.339844 L 169.007812 269.742188 L 303.027344 304.4375 L 276.726562 406.035156 Z M 142.707031 371.339844 "/>
</clipPath>
<clipPath id="clip72">
  <path d="M 331.378906 172 L 367.839844 172 L 367.839844 197.917969 L 331.378906 197.917969 Z M 331.378906 172 "/>
</clipPath>
<clipPath id="clip73">
  <path d="M 331.390625 169.75 L 359.085938 161.058594 L 367.777344 188.753906 L 340.082031 197.449219 Z M 331.390625 169.75 "/>
</clipPath>
<clipPath id="clip74">
  <path d="M 87.941406 92.59375 L 315.894531 21.042969 L 410.183594 321.425781 L 182.230469 392.980469 Z M 87.941406 92.59375 "/>
</clipPath>
<clipPath id="clip75">
  <path d="M 288.410156 307.652344 L 317 307.652344 L 317 336.589844 L 288.410156 336.589844 Z M 288.410156 307.652344 "/>
</clipPath>
<clipPath id="clip76">
  <path d="M 250 301.945312 L 278.644531 301.945312 L 278.644531 330.730469 L 250 330.730469 Z M 250 301.945312 "/>
</clipPath>
<clipPath id="clip77">
  <path d="M 252 260.417969 L 289.714844 260.417969 L 289.714844 285.808594 L 252 285.808594 Z M 252 260.417969 "/>
</clipPath>
<clipPath id="clip78">
  <path d="M 289.277344 287.753906 L 261.984375 297.644531 L 252.09375 270.351562 L 279.386719 260.464844 Z M 289.277344 287.753906 "/>
</clipPath>
<clipPath id="clip79">
  <path d="M 535.84375 354.269531 L 311.214844 435.652344 L 203.964844 139.644531 L 428.597656 58.261719 Z M 535.84375 354.269531 "/>
</clipPath>
<clipPath id="clip80">
  <path d="M 263.019531 259.113281 L 292.96875 259.113281 L 292.96875 286.457031 L 263.019531 286.457031 Z M 263.019531 259.113281 "/>
</clipPath>
<clipPath id="clip81">
  <path d="M 263.492188 255.015625 L 292.359375 251.953125 L 295.65625 283.039062 L 266.792969 286.101562 Z M 263.492188 255.015625 "/>
</clipPath>
<clipPath id="clip82">
  <path d="M 34.4375 128.285156 L 276.460938 102.601562 L 310.394531 422.339844 L 68.367188 448.027344 Z M 34.4375 128.285156 "/>
</clipPath>
<clipPath id="clip83">
  <path d="M 267.355469 260 L 291.667969 260 L 291.667969 286.421875 L 267.355469 286.421875 Z M 267.355469 260 "/>
</clipPath>
</defs>
<g id="surface1">
<path style=" stroke:none;fill-rule:nonzero;fill:rgb(70.196078%,11.372549%,20.392157%);fill-opacity:1;" d="M 353.429688 181.800781 C 346.765625 203.078125 327.605469 228.691406 300.136719 249.390625 C 284.78125 260.960938 280.492188 274.570312 280.414062 286.042969 C 281.589844 285.953125 282.777344 285.90625 283.972656 285.910156 C 290.933594 285.9375 297.738281 287.640625 303.644531 290.828125 C 307.023438 292.652344 310.011719 294.910156 312.546875 297.492188 C 331.707031 293.882812 350.066406 280.71875 360.980469 260.5 C 375.972656 232.714844 372.117188 200.484375 353.429688 181.800781 "/>
<path style=" stroke:none;fill-rule:nonzero;fill:rgb(70.196078%,11.372549%,20.392157%);fill-opacity:1;" d="M 274.09375 321.402344 C 262.882812 317.402344 255.09375 317.722656 250.324219 318.84375 C 250.320312 319.011719 250.3125 319.183594 250.3125 319.355469 C 250.25 335.410156 265.207031 348.480469 283.722656 348.554688 C 299.894531 348.621094 313.429688 338.746094 316.640625 325.546875 C 306.359375 330.722656 290.59375 327.289062 274.09375 321.402344 "/>
<path style=" stroke:none;fill-rule:nonzero;fill:rgb(70.196078%,11.372549%,20.392157%);fill-opacity:1;" d="M 254.914062 249.332031 C 250.390625 197.550781 296.105469 173.820312 296.105469 173.820312 C 255.730469 210.953125 254.914062 249.332031 254.914062 249.332031 Z M 342.339844 173.371094 C 342.039062 173.199219 341.738281 173.027344 341.433594 172.863281 C 312.839844 157.433594 275.242188 171.660156 257.453125 204.628906 C 241.90625 233.429688 246.621094 267.011719 267.113281 285.328125 C 267.683594 262.042969 288.855469 237.183594 315.097656 213.347656 C 332.925781 197.152344 339.789062 182.953125 342.339844 173.371094 "/>
<path style=" stroke:none;fill-rule:nonzero;fill:rgb(70.196078%,11.372549%,20.392157%);fill-opacity:1;" d="M 258.75 303.601562 C 280.332031 286.289062 304.347656 299.503906 304.347656 299.503906 C 275.976562 292.617188 258.75 303.601562 258.75 303.601562 Z M 283.949219 290.421875 C 268.351562 290.359375 255.203125 299.546875 251.414062 312.042969 C 262.238281 309.988281 277.863281 312.378906 293.285156 319.527344 C 304.070312 324.527344 312.214844 321.230469 317.273438 317.398438 C 316.023438 302.378906 301.605469 290.492188 283.949219 290.421875 "/>
<g clip-path="url(#clip1)" clip-rule="nonzero">
<path style=" stroke:none;fill-rule:nonzero;fill:rgb(28.627451%,37.647059%,17.647059%);fill-opacity:1;" d="M 237.386719 271.21875 C 237.386719 271.21875 218.300781 212.710938 267.371094 170.3125 C 345.261719 103.023438 334.769531 21.480469 334.769531 21.480469 C 334.769531 21.480469 202.296875 24.605469 180.292969 136.957031 C 161.808594 231.355469 237.054688 297.535156 237.054688 297.535156 C 237.054688 297.535156 183.992188 214.960938 228.046875 138.050781 C 228.046875 138.050781 203.3125 204.949219 237.386719 271.21875 "/>
</g>
<g clip-path="url(#clip2)" clip-rule="nonzero">
<path style=" stroke:none;fill-rule:nonzero;fill:rgb(28.627451%,37.647059%,17.647059%);fill-opacity:1;" d="M 229.363281 344.394531 C 229.363281 344.394531 219.253906 318.574219 190.042969 317.875 C 143.679688 316.765625 123.984375 285.394531 123.984375 285.394531 C 123.984375 285.394531 170.964844 248.554688 210.789062 281.339844 C 244.246094 308.890625 237.015625 353.457031 237.015625 353.457031 C 237.015625 353.457031 231.835938 309.535156 194.488281 295.390625 C 194.488281 295.390625 222.246094 311.582031 229.363281 344.394531 "/>
</g>
<g clip-path="url(#clip3)" clip-rule="nonzero">
<g clip-path="url(#clip4)" clip-rule="nonzero">
<g clip-path="url(#clip5)" clip-rule="nonzero">
<path style=" stroke:none;fill-rule:nonzero;fill:rgb(70.196078%,11.372549%,20.392157%);fill-opacity:1;" d="M 233.785156 175.0625 C 251.882812 188.082031 270.164062 214.328125 281.167969 246.914062 C 287.320312 265.132812 298.890625 273.484375 309.753906 277.167969 C 310.039062 276.027344 310.367188 274.882812 310.75 273.753906 C 312.964844 267.152344 316.722656 261.230469 321.605469 256.625 C 324.398438 253.992188 327.484375 251.867188 330.730469 250.273438 C 333.339844 230.953125 326.621094 209.382812 310.859375 192.65625 C 289.207031 169.683594 257.402344 163.199219 233.785156 175.0625 "/>
</g>
</g>
</g>
<g clip-path="url(#clip6)" clip-rule="nonzero">
<g clip-path="url(#clip7)" clip-rule="nonzero">
<g clip-path="url(#clip8)" clip-rule="nonzero">
<path style=" stroke:none;fill-rule:nonzero;fill:rgb(70.196078%,11.372549%,20.392157%);fill-opacity:1;" d="M 266.886719 289.820312 C 216.308594 277.820312 208.171875 226.960938 208.171875 226.960938 C 230.710938 276.96875 266.886719 289.820312 266.886719 289.820312 Z M 222.292969 182.933594 C 222.035156 183.167969 221.777344 183.394531 221.527344 183.632812 C 197.882812 205.917969 199.550781 246.082031 225.253906 273.347656 C 247.699219 297.164062 281.054688 303.253906 304.886719 289.570312 C 282.964844 281.703125 266.035156 253.78125 251.664062 221.375 C 241.90625 199.355469 230.585938 188.371094 222.292969 182.933594 "/>
</g>
</g>
</g>
<g clip-path="url(#clip9)" clip-rule="nonzero">
<g clip-path="url(#clip10)" clip-rule="nonzero">
<g clip-path="url(#clip11)" clip-rule="nonzero">
<path style=" stroke:none;fill-rule:nonzero;fill:rgb(58.431373%,66.27451%,29.411765%);fill-opacity:1;" d="M 282.140625 313.34375 C 282.140625 313.34375 220.597656 313.050781 195.800781 253.128906 C 156.4375 158.023438 75.738281 142.320312 75.738281 142.320312 C 75.738281 142.320312 37.015625 269.046875 136.738281 325.285156 C 220.519531 372.539062 307.015625 321.941406 307.015625 321.941406 C 307.015625 321.941406 211.941406 346.328125 152.800781 280.304688 C 152.800781 280.304688 208.519531 324.835938 282.140625 313.34375 "/>
</g>
</g>
</g>
<g clip-path="url(#clip12)" clip-rule="nonzero">
<g clip-path="url(#clip13)" clip-rule="nonzero">
<g clip-path="url(#clip14)" clip-rule="nonzero">
<path style=" stroke:none;fill-rule:nonzero;fill:rgb(70.196078%,11.372549%,20.392157%);fill-opacity:1;" d="M 251.949219 175.0625 C 270.050781 188.082031 288.328125 214.328125 299.335938 246.914062 C 305.484375 265.132812 317.050781 273.484375 327.917969 277.167969 C 328.203125 276.027344 328.53125 274.882812 328.914062 273.753906 C 331.128906 267.152344 334.882812 261.230469 339.769531 256.625 C 342.5625 253.992188 345.648438 251.867188 348.894531 250.273438 C 351.503906 230.953125 344.785156 209.382812 329.023438 192.65625 C 307.371094 169.683594 275.566406 163.199219 251.949219 175.0625 "/>
</g>
</g>
</g>
<g clip-path="url(#clip15)" clip-rule="nonzero">
<g clip-path="url(#clip16)" clip-rule="nonzero">
<g clip-path="url(#clip17)" clip-rule="nonzero">
<path style=" stroke:none;fill-rule:nonzero;fill:rgb(70.196078%,11.372549%,20.392157%);fill-opacity:1;" d="M 285.050781 289.820312 C 234.472656 277.820312 226.335938 226.960938 226.335938 226.960938 C 248.875 276.96875 285.050781 289.820312 285.050781 289.820312 Z M 240.457031 182.933594 C 240.199219 183.167969 239.941406 183.394531 239.691406 183.632812 C 216.050781 205.917969 217.71875 246.082031 243.414062 273.347656 C 265.863281 297.164062 299.21875 303.253906 323.050781 289.570312 C 301.128906 281.703125 284.199219 253.78125 269.828125 221.375 C 260.066406 199.355469 248.75 188.371094 240.457031 182.933594 "/>
</g>
</g>
</g>
<g clip-path="url(#clip18)" clip-rule="nonzero">
<g clip-path="url(#clip19)" clip-rule="nonzero">
<g clip-path="url(#clip20)" clip-rule="nonzero">
<path style=" stroke:none;fill-rule:nonzero;fill:rgb(58.431373%,66.27451%,29.411765%);fill-opacity:1;" d="M 300.304688 313.34375 C 300.304688 313.34375 238.765625 313.050781 213.964844 253.128906 C 174.601562 158.023438 93.902344 142.320312 93.902344 142.320312 C 93.902344 142.320312 55.179688 269.046875 154.902344 325.285156 C 238.6875 372.539062 325.179688 321.941406 325.179688 321.941406 C 325.179688 321.941406 230.101562 346.328125 170.964844 280.304688 C 170.964844 280.304688 226.683594 324.835938 300.304688 313.34375 "/>
</g>
</g>
</g>
<g clip-path="url(#clip21)" clip-rule="nonzero">
<g clip-path="url(#clip22)" clip-rule="nonzero">
<g clip-path="url(#clip23)" clip-rule="nonzero">
<path style=" stroke:none;fill-rule:nonzero;fill:rgb(70.196078%,11.372549%,20.392157%);fill-opacity:1;" d="M 154.679688 134.265625 C 193.5 162.195312 232.707031 218.496094 256.308594 288.382812 C 269.5 327.453125 294.3125 345.371094 317.621094 353.273438 C 318.222656 350.824219 318.929688 348.375 319.753906 345.945312 C 324.503906 331.789062 332.558594 319.085938 343.035156 309.207031 C 349.027344 303.5625 355.644531 299 362.609375 295.585938 C 368.203125 254.144531 353.792969 207.875 319.988281 172.011719 C 273.546875 122.738281 205.328125 108.832031 154.679688 134.265625 "/>
</g>
</g>
</g>
<g clip-path="url(#clip24)" clip-rule="nonzero">
<g clip-path="url(#clip25)" clip-rule="nonzero">
<g clip-path="url(#clip26)" clip-rule="nonzero">
<path style=" stroke:none;fill-rule:nonzero;fill:rgb(70.196078%,11.372549%,20.392157%);fill-opacity:1;" d="M 225.671875 380.40625 C 117.191406 354.671875 99.742188 245.585938 99.742188 245.585938 C 148.085938 352.839844 225.671875 380.40625 225.671875 380.40625 Z M 130.027344 151.152344 C 129.476562 151.652344 128.925781 152.144531 128.386719 152.65625 C 77.675781 200.449219 81.253906 286.59375 136.375 345.074219 C 184.523438 396.152344 256.058594 409.226562 307.183594 379.867188 C 260.160156 362.992188 223.84375 303.113281 193.027344 233.597656 C 172.09375 186.375 147.8125 162.820312 130.027344 151.152344 "/>
</g>
</g>
</g>
<g clip-path="url(#clip27)" clip-rule="nonzero">
<g clip-path="url(#clip28)" clip-rule="nonzero">
<g clip-path="url(#clip29)" clip-rule="nonzero">
<path style=" stroke:none;fill-rule:nonzero;fill:rgb(58.431373%,66.27451%,29.411765%);fill-opacity:1;" d="M 258.390625 430.863281 C 258.390625 430.863281 126.394531 430.226562 73.207031 301.710938 C -11.21875 97.726562 -184.304688 64.050781 -184.304688 64.050781 C -184.304688 64.050781 -267.355469 335.847656 -53.472656 456.476562 C 126.226562 557.828125 311.746094 449.300781 311.746094 449.300781 C 311.746094 449.300781 107.820312 501.601562 -19.015625 360.003906 C -19.015625 360.003906 100.484375 455.511719 258.390625 430.863281 "/>
</g>
</g>
</g>
<g clip-path="url(#clip30)" clip-rule="nonzero">
<g clip-path="url(#clip31)" clip-rule="nonzero">
<g clip-path="url(#clip32)" clip-rule="nonzero">
<path style=" stroke:none;fill-rule:nonzero;fill:rgb(70.196078%,11.372549%,20.392157%);fill-opacity:1;" d="M 259.988281 154.089844 C 278.085938 167.113281 296.367188 193.359375 307.375 225.945312 C 313.523438 244.160156 325.089844 252.515625 335.957031 256.199219 C 336.238281 255.054688 336.566406 253.914062 336.953125 252.78125 C 339.167969 246.179688 342.921875 240.261719 347.808594 235.652344 C 350.601562 233.023438 353.6875 230.894531 356.933594 229.300781 C 359.542969 209.980469 352.824219 188.40625 337.0625 171.6875 C 315.410156 148.714844 283.605469 142.230469 259.988281 154.089844 "/>
</g>
</g>
</g>
<g clip-path="url(#clip33)" clip-rule="nonzero">
<g clip-path="url(#clip34)" clip-rule="nonzero">
<g clip-path="url(#clip35)" clip-rule="nonzero">
<path style=" stroke:none;fill-rule:nonzero;fill:rgb(70.196078%,11.372549%,20.392157%);fill-opacity:1;" d="M 293.089844 268.851562 C 242.511719 256.851562 234.375 205.992188 234.375 205.992188 C 256.914062 255.996094 293.089844 268.851562 293.089844 268.851562 Z M 248.496094 161.960938 C 248.238281 162.195312 247.980469 162.425781 247.730469 162.664062 C 224.089844 184.945312 225.757812 225.109375 251.453125 252.375 C 273.902344 276.191406 307.257812 282.285156 331.089844 268.597656 C 309.167969 260.730469 292.234375 232.8125 277.867188 200.402344 C 268.105469 178.382812 256.789062 167.402344 248.496094 161.960938 "/>
</g>
</g>
</g>
<g clip-path="url(#clip36)" clip-rule="nonzero">
<g clip-path="url(#clip37)" clip-rule="nonzero">
<g clip-path="url(#clip38)" clip-rule="nonzero">
<path style=" stroke:none;fill-rule:nonzero;fill:rgb(58.431373%,66.27451%,29.411765%);fill-opacity:1;" d="M 308.34375 292.375 C 308.34375 292.375 246.804688 292.078125 222.003906 232.15625 C 182.640625 137.050781 101.9375 121.351562 101.9375 121.351562 C 101.9375 121.351562 63.21875 248.074219 162.9375 304.316406 C 246.722656 351.570312 333.21875 300.972656 333.21875 300.972656 C 333.21875 300.972656 238.140625 325.355469 179.003906 259.335938 C 179.003906 259.335938 234.722656 303.867188 308.34375 292.375 "/>
</g>
</g>
</g>
<g clip-path="url(#clip39)" clip-rule="nonzero">
<g clip-path="url(#clip40)" clip-rule="nonzero">
<g clip-path="url(#clip41)" clip-rule="nonzero">
<path style=" stroke:none;fill-rule:nonzero;fill:rgb(70.196078%,11.372549%,20.392157%);fill-opacity:1;" d="M 285.640625 120.632812 C 298.992188 138.484375 308.539062 169.015625 309.246094 203.402344 C 309.636719 222.625 318.160156 234.066406 327.417969 240.847656 C 328.03125 239.84375 328.6875 238.851562 329.394531 237.886719 C 333.488281 232.257812 338.851562 227.738281 344.894531 224.8125 C 348.347656 223.140625 351.929688 222.039062 355.507812 221.496094 C 363.800781 203.851562 363.871094 181.257812 353.863281 160.574219 C 340.113281 132.15625 311.726562 116.414062 285.640625 120.632812 "/>
</g>
</g>
</g>
<g clip-path="url(#clip42)" clip-rule="nonzero">
<g clip-path="url(#clip43)" clip-rule="nonzero">
<g clip-path="url(#clip44)" clip-rule="nonzero">
<path style=" stroke:none;fill-rule:nonzero;fill:rgb(70.196078%,11.372549%,20.392157%);fill-opacity:1;" d="M 282.726562 240.035156 C 238.09375 213.390625 245.617188 162.4375 245.617188 162.4375 C 252.089844 216.902344 282.726562 240.035156 282.726562 240.035156 Z M 272.3125 124.683594 C 271.996094 124.828125 271.683594 124.972656 271.371094 125.125 C 242.125 139.273438 231.648438 178.082031 247.96875 211.808594 C 262.222656 241.269531 292.207031 257.105469 319.050781 251.210938 C 300.503906 237.121094 292.746094 205.402344 288.777344 170.175781 C 286.085938 146.242188 278.585938 132.363281 272.3125 124.683594 "/>
</g>
</g>
</g>
<g clip-path="url(#clip45)" clip-rule="nonzero">
<g clip-path="url(#clip46)" clip-rule="nonzero">
<g clip-path="url(#clip47)" clip-rule="nonzero">
<path style=" stroke:none;fill-rule:nonzero;fill:rgb(70.196078%,11.372549%,20.392157%);fill-opacity:1;" d="M 331.582031 224.347656 C 320.640625 249.484375 293.851562 278.28125 257.558594 299.980469 C 237.265625 312.109375 230.234375 328.183594 228.636719 342.203125 C 230.078125 342.242188 231.539062 342.339844 233 342.507812 C 241.507812 343.453125 249.601562 346.425781 256.40625 351.097656 C 260.292969 353.769531 263.652344 356.921875 266.414062 360.414062 C 290.3125 358.519531 314.484375 344.835938 330.480469 321.546875 C 352.457031 289.546875 351.972656 249.640625 331.582031 224.347656 "/>
</g>
</g>
</g>
<g clip-path="url(#clip48)" clip-rule="nonzero">
<g clip-path="url(#clip49)" clip-rule="nonzero">
<g clip-path="url(#clip50)" clip-rule="nonzero">
<path style=" stroke:none;fill-rule:nonzero;fill:rgb(70.196078%,11.372549%,20.392157%);fill-opacity:1;" d="M 202.28125 293.976562 C 203.542969 230.074219 262.546875 207.066406 262.546875 207.066406 C 208.316406 247.160156 202.28125 293.976562 202.28125 293.976562 Z M 319.128906 212.582031 C 318.785156 212.332031 318.441406 212.085938 318.085938 211.84375 C 285.160156 189.230469 237.328125 201.683594 211.246094 239.65625 C 188.464844 272.828125 189.820312 314.496094 212.46875 339.578125 C 216.21875 311.183594 245.367188 283.578125 280.574219 257.878906 C 304.5 240.421875 314.75 223.964844 319.128906 212.582031 "/>
</g>
</g>
</g>
<g clip-path="url(#clip51)" clip-rule="nonzero">
<g clip-path="url(#clip52)" clip-rule="nonzero">
<g clip-path="url(#clip53)" clip-rule="nonzero">
<path style=" stroke:none;fill-rule:nonzero;fill:rgb(58.431373%,66.27451%,29.411765%);fill-opacity:1;" d="M 177.980469 318.425781 C 177.980469 318.425781 162.328125 244.394531 227.882812 199.003906 C 331.933594 126.964844 329.8125 25.902344 329.8125 25.902344 C 329.8125 25.902344 167.453125 12.332031 125.804688 146.796875 C 90.8125 259.777344 174.117188 350.554688 174.117188 350.554688 C 174.117188 350.554688 120.085938 242.640625 184.039062 154.402344 C 184.039062 154.402344 145.019531 232.941406 177.980469 318.425781 "/>
</g>
</g>
</g>
<g clip-path="url(#clip54)" clip-rule="nonzero">
<g clip-path="url(#clip55)" clip-rule="nonzero">
<g clip-path="url(#clip56)" clip-rule="nonzero">
<path style=" stroke:none;fill-rule:nonzero;fill:rgb(70.196078%,11.372549%,20.392157%);fill-opacity:1;" d="M 276.878906 301.480469 C 284.75 306.382812 293.0625 316.765625 298.535156 329.980469 C 301.59375 337.371094 306.625 340.515625 311.238281 341.742188 C 311.324219 341.261719 311.425781 340.777344 311.554688 340.296875 C 312.292969 337.496094 313.683594 334.933594 315.585938 332.886719 C 316.671875 331.71875 317.890625 330.75 319.195312 330 C 319.742188 321.910156 316.351562 313.144531 309.347656 306.644531 C 299.726562 297.710938 286.347656 295.902344 276.878906 301.480469 "/>
</g>
</g>
</g>
<g clip-path="url(#clip57)" clip-rule="nonzero">
<g clip-path="url(#clip58)" clip-rule="nonzero">
<g clip-path="url(#clip59)" clip-rule="nonzero">
<path style=" stroke:none;fill-rule:nonzero;fill:rgb(70.196078%,11.372549%,20.392157%);fill-opacity:1;" d="M 293.800781 348.183594 C 272.480469 344.609375 267.691406 323.726562 267.691406 323.726562 C 278.433594 343.855469 293.800781 348.183594 293.800781 348.183594 Z M 272.324219 305.066406 C 272.226562 305.171875 272.125 305.273438 272.027344 305.378906 C 262.835938 315.28125 264.644531 331.902344 276.066406 342.503906 C 286.042969 351.761719 300.050781 353.367188 309.5625 347.023438 C 300.246094 344.367188 292.445312 333.25 285.582031 320.203125 C 280.921875 311.335938 275.917969 307.09375 272.324219 305.066406 "/>
</g>
</g>
</g>
<g clip-path="url(#clip60)" clip-rule="nonzero">
<g clip-path="url(#clip61)" clip-rule="nonzero">
<g clip-path="url(#clip62)" clip-rule="nonzero">
<path style=" stroke:none;fill-rule:nonzero;fill:rgb(58.431373%,66.27451%,29.411765%);fill-opacity:1;" d="M 300.785156 357.519531 C 300.785156 357.519531 275.238281 359.109375 263.28125 334.929688 C 244.308594 296.558594 210.382812 292.285156 210.382812 292.285156 C 210.382812 292.285156 197.835938 345.945312 240.777344 366.515625 C 276.859375 383.796875 311.34375 360.398438 311.34375 360.398438 C 311.34375 360.398438 272.566406 373.15625 246.191406 347.402344 C 246.191406 347.402344 270.550781 364.335938 300.785156 357.519531 "/>
</g>
</g>
</g>
<g clip-path="url(#clip63)" clip-rule="nonzero">
<g clip-path="url(#clip64)" clip-rule="nonzero">
<g clip-path="url(#clip65)" clip-rule="nonzero">
<path style=" stroke:none;fill-rule:nonzero;fill:rgb(70.196078%,11.372549%,20.392157%);fill-opacity:1;" d="M 231.1875 295.675781 C 239.0625 300.574219 247.375 310.960938 252.847656 324.175781 C 255.90625 331.566406 260.9375 334.710938 265.546875 335.9375 C 265.636719 335.453125 265.738281 334.972656 265.867188 334.492188 C 266.601562 331.691406 267.996094 329.128906 269.894531 327.082031 C 270.984375 325.914062 272.203125 324.945312 273.507812 324.191406 C 274.054688 316.105469 270.664062 307.335938 263.660156 300.835938 C 254.039062 291.90625 240.660156 290.097656 231.1875 295.675781 "/>
</g>
</g>
</g>
<g clip-path="url(#clip66)" clip-rule="nonzero">
<g clip-path="url(#clip67)" clip-rule="nonzero">
<g clip-path="url(#clip68)" clip-rule="nonzero">
<path style=" stroke:none;fill-rule:nonzero;fill:rgb(70.196078%,11.372549%,20.392157%);fill-opacity:1;" d="M 248.109375 342.375 C 226.789062 338.804688 222 317.925781 222 317.925781 C 232.742188 338.046875 248.109375 342.375 248.109375 342.375 Z M 226.640625 299.261719 C 226.535156 299.363281 226.4375 299.464844 226.339844 299.574219 C 217.148438 309.476562 218.957031 326.097656 230.378906 336.699219 C 240.355469 345.957031 254.363281 347.558594 263.871094 341.21875 C 254.558594 338.5625 246.757812 327.445312 239.894531 314.398438 C 235.230469 305.527344 230.230469 301.289062 226.640625 299.261719 "/>
</g>
</g>
</g>
<g clip-path="url(#clip69)" clip-rule="nonzero">
<g clip-path="url(#clip70)" clip-rule="nonzero">
<g clip-path="url(#clip71)" clip-rule="nonzero">
<path style=" stroke:none;fill-rule:nonzero;fill:rgb(58.431373%,66.27451%,29.411765%);fill-opacity:1;" d="M 255.09375 351.714844 C 255.09375 351.714844 229.546875 353.300781 217.59375 329.128906 C 198.617188 290.753906 164.695312 286.480469 164.695312 286.480469 C 164.695312 286.480469 152.144531 340.140625 195.089844 360.710938 C 231.167969 377.992188 265.65625 354.589844 265.65625 354.589844 C 265.65625 354.589844 226.878906 367.351562 200.503906 341.597656 C 200.503906 341.597656 224.863281 358.527344 255.09375 351.714844 "/>
</g>
</g>
</g>
<g clip-path="url(#clip72)" clip-rule="nonzero">
<g clip-path="url(#clip73)" clip-rule="nonzero">
<g clip-path="url(#clip74)" clip-rule="nonzero">
<path style=" stroke:none;fill-rule:nonzero;fill:rgb(70.196078%,11.372549%,20.392157%);fill-opacity:1;" d="M 340.144531 172.242188 C 340.15625 193.308594 330.128906 221.816406 311.226562 248.246094 C 300.660156 263.019531 300.644531 276.503906 303.824219 286.867188 C 304.851562 286.449219 305.910156 286.070312 306.988281 285.742188 C 313.273438 283.792969 319.886719 283.402344 326.117188 284.605469 C 329.671875 285.292969 333.007812 286.480469 336.023438 288.09375 C 352.273438 279.421875 365.097656 262.359375 369.214844 241.042969 C 374.867188 211.757812 362.273438 183.796875 340.144531 172.242188 "/>
</g>
</g>
</g>
<g clip-path="url(#clip75)" clip-rule="nonzero">
<path style=" stroke:none;fill-rule:nonzero;fill:rgb(70.196078%,11.372549%,20.392157%);fill-opacity:1;" d="M 316.8125 321.855469 C 316.8125 322.320312 316.789062 322.78125 316.742188 323.246094 C 316.695312 323.707031 316.628906 324.167969 316.539062 324.625 C 316.445312 325.082031 316.335938 325.53125 316.199219 325.976562 C 316.066406 326.421875 315.90625 326.859375 315.730469 327.289062 C 315.550781 327.71875 315.351562 328.136719 315.132812 328.546875 C 314.914062 328.957031 314.675781 329.355469 314.417969 329.742188 C 314.15625 330.128906 313.882812 330.503906 313.589844 330.863281 C 313.292969 331.21875 312.980469 331.566406 312.652344 331.894531 C 312.320312 332.222656 311.980469 332.535156 311.621094 332.828125 C 311.257812 333.125 310.886719 333.402344 310.5 333.660156 C 310.113281 333.917969 309.714844 334.15625 309.304688 334.375 C 308.894531 334.59375 308.472656 334.792969 308.042969 334.972656 C 307.613281 335.148438 307.175781 335.308594 306.730469 335.441406 C 306.289062 335.578125 305.835938 335.6875 305.382812 335.78125 C 304.925781 335.871094 304.464844 335.941406 304.003906 335.984375 C 303.539062 336.03125 303.074219 336.050781 302.609375 336.050781 C 302.148438 336.050781 301.679688 336.03125 301.21875 335.984375 C 300.753906 335.941406 300.296875 335.871094 299.839844 335.78125 C 299.386719 335.6875 298.933594 335.578125 298.488281 335.441406 C 298.042969 335.308594 297.609375 335.148438 297.175781 334.972656 C 296.746094 334.792969 296.328125 334.59375 295.917969 334.375 C 295.507812 334.15625 295.109375 333.917969 294.722656 333.660156 C 294.335938 333.402344 293.964844 333.125 293.601562 332.828125 C 293.242188 332.535156 292.898438 332.222656 292.570312 331.894531 C 292.242188 331.566406 291.929688 331.21875 291.632812 330.863281 C 291.339844 330.503906 291.0625 330.128906 290.804688 329.742188 C 290.546875 329.355469 290.304688 328.957031 290.085938 328.546875 C 289.867188 328.136719 289.671875 327.71875 289.492188 327.289062 C 289.3125 326.859375 289.15625 326.421875 289.023438 325.976562 C 288.886719 325.53125 288.773438 325.082031 288.683594 324.625 C 288.59375 324.167969 288.527344 323.707031 288.480469 323.246094 C 288.433594 322.78125 288.410156 322.320312 288.410156 321.855469 C 288.410156 321.386719 288.433594 320.925781 288.480469 320.460938 C 288.527344 320 288.59375 319.539062 288.683594 319.085938 C 288.773438 318.625 288.886719 318.175781 289.023438 317.730469 C 289.15625 317.285156 289.3125 316.847656 289.492188 316.417969 C 289.671875 315.988281 289.867188 315.570312 290.085938 315.160156 C 290.304688 314.75 290.546875 314.351562 290.804688 313.964844 C 291.0625 313.578125 291.339844 313.203125 291.632812 312.847656 C 291.929688 312.484375 292.242188 312.140625 292.570312 311.8125 C 292.898438 311.484375 293.242188 311.171875 293.601562 310.878906 C 293.964844 310.582031 294.335938 310.304688 294.722656 310.046875 C 295.109375 309.789062 295.507812 309.550781 295.917969 309.332031 C 296.328125 309.109375 296.746094 308.910156 297.175781 308.734375 C 297.609375 308.554688 298.042969 308.402344 298.488281 308.265625 C 298.933594 308.132812 299.386719 308.015625 299.839844 307.925781 C 300.296875 307.835938 300.753906 307.765625 301.21875 307.722656 C 301.679688 307.675781 302.148438 307.652344 302.609375 307.652344 C 303.074219 307.652344 303.539062 307.675781 304.003906 307.722656 C 304.464844 307.765625 304.925781 307.835938 305.382812 307.925781 C 305.835938 308.015625 306.289062 308.132812 306.730469 308.265625 C 307.175781 308.402344 307.613281 308.554688 308.042969 308.734375 C 308.472656 308.910156 308.894531 309.109375 309.304688 309.332031 C 309.714844 309.550781 310.113281 309.789062 310.5 310.046875 C 310.886719 310.304688 311.257812 310.582031 311.621094 310.878906 C 311.980469 311.171875 312.320312 311.484375 312.652344 311.8125 C 312.980469 312.140625 313.292969 312.484375 313.589844 312.847656 C 313.882812 313.203125 314.15625 313.578125 314.417969 313.964844 C 314.675781 314.351562 314.914062 314.75 315.132812 315.160156 C 315.351562 315.570312 315.550781 315.988281 315.730469 316.417969 C 315.90625 316.847656 316.066406 317.285156 316.199219 317.730469 C 316.335938 318.175781 316.445312 318.625 316.539062 319.085938 C 316.628906 319.539062 316.695312 320 316.742188 320.460938 C 316.789062 320.925781 316.8125 321.386719 316.8125 321.855469 Z M 316.8125 321.855469 "/>
</g>
<g clip-path="url(#clip76)" clip-rule="nonzero">
<path style=" stroke:none;fill-rule:nonzero;fill:rgb(70.196078%,11.372549%,20.392157%);fill-opacity:1;" d="M 278.398438 316.148438 C 278.398438 316.613281 278.375 317.074219 278.332031 317.539062 C 278.285156 318 278.21875 318.460938 278.128906 318.917969 C 278.035156 319.375 277.921875 319.824219 277.789062 320.269531 C 277.652344 320.714844 277.496094 321.152344 277.316406 321.582031 C 277.140625 322.011719 276.941406 322.429688 276.722656 322.839844 C 276.503906 323.25 276.265625 323.648438 276.007812 324.035156 C 275.75 324.421875 275.472656 324.796875 275.175781 325.15625 C 274.882812 325.511719 274.570312 325.859375 274.242188 326.1875 C 273.910156 326.515625 273.566406 326.828125 273.207031 327.121094 C 272.847656 327.417969 272.476562 327.695312 272.089844 327.953125 C 271.703125 328.210938 271.304688 328.449219 270.894531 328.667969 C 270.480469 328.886719 270.0625 329.085938 269.632812 329.265625 C 269.203125 329.441406 268.765625 329.601562 268.320312 329.734375 C 267.875 329.871094 267.425781 329.980469 266.96875 330.074219 C 266.515625 330.164062 266.054688 330.234375 265.59375 330.277344 C 265.128906 330.320312 264.664062 330.34375 264.199219 330.34375 C 263.734375 330.34375 263.269531 330.320312 262.808594 330.277344 C 262.34375 330.234375 261.886719 330.164062 261.429688 330.074219 C 260.972656 329.980469 260.523438 329.871094 260.078125 329.734375 C 259.632812 329.601562 259.195312 329.441406 258.765625 329.265625 C 258.335938 329.085938 257.917969 328.886719 257.503906 328.667969 C 257.09375 328.449219 256.699219 328.210938 256.308594 327.953125 C 255.921875 327.695312 255.550781 327.417969 255.191406 327.121094 C 254.832031 326.828125 254.488281 326.515625 254.15625 326.1875 C 253.828125 325.859375 253.515625 325.511719 253.222656 325.15625 C 252.925781 324.796875 252.652344 324.421875 252.394531 324.035156 C 252.132812 323.648438 251.894531 323.25 251.675781 322.839844 C 251.457031 322.429688 251.257812 322.011719 251.082031 321.582031 C 250.902344 321.152344 250.746094 320.714844 250.609375 320.269531 C 250.476562 319.824219 250.363281 319.375 250.273438 318.917969 C 250.183594 318.460938 250.113281 318 250.070312 317.539062 C 250.023438 317.074219 250 316.613281 250 316.148438 C 250 315.679688 250.023438 315.21875 250.070312 314.753906 C 250.113281 314.292969 250.183594 313.832031 250.273438 313.378906 C 250.363281 312.917969 250.476562 312.46875 250.609375 312.023438 C 250.746094 311.578125 250.902344 311.140625 251.082031 310.710938 C 251.257812 310.28125 251.457031 309.863281 251.675781 309.453125 C 251.894531 309.042969 252.132812 308.644531 252.394531 308.257812 C 252.652344 307.871094 252.925781 307.496094 253.222656 307.140625 C 253.515625 306.777344 253.828125 306.433594 254.15625 306.105469 C 254.488281 305.777344 254.832031 305.464844 255.191406 305.171875 C 255.550781 304.875 255.921875 304.597656 256.308594 304.339844 C 256.699219 304.082031 257.09375 303.84375 257.503906 303.625 C 257.917969 303.402344 258.335938 303.203125 258.765625 303.027344 C 259.195312 302.847656 259.632812 302.695312 260.078125 302.558594 C 260.523438 302.425781 260.972656 302.308594 261.429688 302.21875 C 261.886719 302.128906 262.34375 302.058594 262.808594 302.015625 C 263.269531 301.96875 263.734375 301.945312 264.199219 301.945312 C 264.664062 301.945312 265.128906 301.96875 265.59375 302.015625 C 266.054688 302.058594 266.515625 302.128906 266.96875 302.21875 C 267.425781 302.308594 267.875 302.425781 268.320312 302.558594 C 268.765625 302.695312 269.203125 302.847656 269.632812 303.027344 C 270.0625 303.203125 270.480469 303.402344 270.894531 303.625 C 271.304688 303.84375 271.703125 304.082031 272.089844 304.339844 C 272.476562 304.597656 272.847656 304.875 273.207031 305.171875 C 273.566406 305.464844 273.910156 305.777344 274.242188 306.105469 C 274.570312 306.433594 274.882812 306.777344 275.175781 307.140625 C 275.472656 307.496094 275.75 307.871094 276.007812 308.257812 C 276.265625 308.644531 276.503906 309.042969 276.722656 309.453125 C 276.941406 309.863281 277.140625 310.28125 277.316406 310.710938 C 277.496094 311.140625 277.652344 311.578125 277.789062 312.023438 C 277.921875 312.46875 278.035156 312.917969 278.128906 313.378906 C 278.21875 313.832031 278.285156 314.292969 278.332031 314.753906 C 278.375 315.21875 278.398438 315.679688 278.398438 316.148438 Z M 278.398438 316.148438 "/>
</g>
<g clip-path="url(#clip77)" clip-rule="nonzero">
<g clip-path="url(#clip78)" clip-rule="nonzero">
<g clip-path="url(#clip79)" clip-rule="nonzero">
<path style=" stroke:none;fill-rule:nonzero;fill:rgb(70.196078%,11.372549%,20.392157%);fill-opacity:1;" d="M 280.421875 285.648438 C 279.492188 264.601562 288.273438 235.6875 306.007812 208.460938 C 315.921875 193.242188 315.351562 179.769531 311.730469 169.554688 C 310.71875 170.011719 309.675781 170.4375 308.613281 170.816406 C 302.421875 173.035156 295.828125 173.714844 289.554688 172.78125 C 285.96875 172.25 282.585938 171.207031 279.503906 169.730469 C 263.644531 179.097656 251.574219 196.699219 248.386719 218.175781 C 244.011719 247.679688 257.808594 275.066406 280.421875 285.648438 "/>
</g>
</g>
</g>
<g clip-path="url(#clip80)" clip-rule="nonzero">
<g clip-path="url(#clip81)" clip-rule="nonzero">
<g clip-path="url(#clip82)" clip-rule="nonzero">
<path style=" stroke:none;fill-rule:nonzero;fill:rgb(70.196078%,11.372549%,20.392157%);fill-opacity:1;" d="M 271.789062 259.300781 C 267.546875 280.472656 251.710938 307.097656 227.375 329.835938 C 213.769531 342.550781 211.03125 356.09375 212.128906 367.148438 C 213.25 366.945312 214.386719 366.777344 215.539062 366.660156 C 222.25 365.972656 228.972656 366.917969 234.992188 369.382812 C 238.429688 370.792969 241.539062 372.664062 244.242188 374.890625 C 262.328125 369.460938 278.664062 354.902344 287.105469 334.316406 C 298.703125 306.027344 291.695312 275.382812 271.789062 259.300781 "/>
</g>
</g>
</g>
<g clip-path="url(#clip83)" clip-rule="nonzero">
<path style=" stroke:none;fill-rule:nonzero;fill:rgb(70.196078%,11.372549%,20.392157%);fill-opacity:1;" d="M 275.15625 260.296875 C 268.703125 280.902344 250.144531 305.703125 223.546875 325.753906 C 208.675781 336.957031 204.519531 350.136719 204.449219 361.25 C 205.582031 361.160156 206.734375 361.113281 207.890625 361.121094 C 214.632812 361.148438 221.222656 362.796875 226.945312 365.878906 C 230.214844 367.648438 233.109375 369.835938 235.5625 372.335938 C 254.121094 368.84375 271.902344 356.09375 282.46875 336.507812 C 296.988281 309.601562 293.257812 278.390625 275.15625 260.296875 "/>
</g>
</g>
</svg>
