<svg xmlns="http://www.w3.org/2000/svg" xmlns:xlink="http://www.w3.org/1999/xlink" width="1024" zoomAndPan="magnify" viewBox="0 0 768 576" height="768" preserveAspectRatio="xMidYMid meet" version="1.0"><defs><g/><clipPath id="aaed10b4a5"><path d="M 29.480469 374 L 153 374 L 153 468 L 29.480469 468 Z M 29.480469 374 " clip-rule="nonzero"/></clipPath><clipPath id="c52fadc9fa"><path d="M 203 309 L 244 309 L 244 356 L 203 356 Z M 203 309 " clip-rule="nonzero"/></clipPath><clipPath id="01cd418404"><path d="M 203.738281 346.652344 L 215.925781 309.894531 L 243.492188 319.035156 L 231.304688 355.789062 Z M 203.738281 346.652344 " clip-rule="nonzero"/></clipPath><clipPath id="5a94c6dcde"><path d="M -94.773438 455.867188 L -8.710938 196.28125 L 333.578125 309.761719 L 247.515625 569.351562 Z M -94.773438 455.867188 " clip-rule="nonzero"/></clipPath><clipPath id="83e60a0778"><path d="M 203 309 L 226 309 L 226 356 L 203 356 Z M 203 309 " clip-rule="nonzero"/></clipPath><clipPath id="c6edced734"><path d="M 203.738281 346.652344 L 215.925781 309.894531 L 243.492188 319.035156 L 231.304688 355.789062 Z M 203.738281 346.652344 " clip-rule="nonzero"/></clipPath><clipPath id="da8796cb71"><path d="M -94.773438 455.867188 L -8.710938 196.28125 L 333.578125 309.761719 L 247.515625 569.351562 Z M -94.773438 455.867188 " clip-rule="nonzero"/></clipPath><clipPath id="28368f4098"><path d="M 203 309 L 228 309 L 228 356 L 203 356 Z M 203 309 " clip-rule="nonzero"/></clipPath><clipPath id="f328457b7e"><path d="M 203.738281 346.652344 L 215.925781 309.894531 L 243.492188 319.035156 L 231.304688 355.789062 Z M 203.738281 346.652344 " clip-rule="nonzero"/></clipPath><clipPath id="ca599a3d4b"><path d="M -94.773438 455.867188 L -8.710938 196.28125 L 333.578125 309.761719 L 247.515625 569.351562 Z M -94.773438 455.867188 " clip-rule="nonzero"/></clipPath><clipPath id="fb10ee31fa"><path d="M 223 309 L 264 309 L 264 356 L 223 356 Z M 223 309 " clip-rule="nonzero"/></clipPath><clipPath id="59176bee7f"><path d="M 223.425781 346.652344 L 235.613281 309.894531 L 263.179688 319.035156 L 250.992188 355.789062 Z M 223.425781 346.652344 " clip-rule="nonzero"/></clipPath><clipPath id="9c9b80d4a0"><path d="M -75.085938 455.867188 L 10.976562 196.28125 L 353.265625 309.761719 L 267.203125 569.351562 Z M -75.085938 455.867188 " clip-rule="nonzero"/></clipPath><clipPath id="83d7da4d02"><path d="M 223 309 L 246 309 L 246 356 L 223 356 Z M 223 309 " clip-rule="nonzero"/></clipPath><clipPath id="47d7d33cad"><path d="M 223.425781 346.652344 L 235.613281 309.894531 L 263.179688 319.035156 L 250.992188 355.789062 Z M 223.425781 346.652344 " clip-rule="nonzero"/></clipPath><clipPath id="6ad2d6c887"><path d="M -75.085938 455.867188 L 10.976562 196.28125 L 353.265625 309.761719 L 267.203125 569.351562 Z M -75.085938 455.867188 " clip-rule="nonzero"/></clipPath><clipPath id="647b4a5806"><path d="M 223 309 L 248 309 L 248 356 L 223 356 Z M 223 309 " clip-rule="nonzero"/></clipPath><clipPath id="2a8bbc4fa6"><path d="M 223.425781 346.652344 L 235.613281 309.894531 L 263.179688 319.035156 L 250.992188 355.789062 Z M 223.425781 346.652344 " clip-rule="nonzero"/></clipPath><clipPath id="f072839b15"><path d="M -75.085938 455.867188 L 10.976562 196.28125 L 353.265625 309.761719 L 267.203125 569.351562 Z M -75.085938 455.867188 " clip-rule="nonzero"/></clipPath><clipPath id="b4ae2a3a06"><path d="M 181 306 L 265 306 L 265 405 L 181 405 Z M 181 306 " clip-rule="nonzero"/></clipPath><clipPath id="3115d8b90c"><path d="M 181.199219 385.039062 L 207.09375 306.933594 L 264.523438 325.972656 L 238.628906 404.082031 Z M 181.199219 385.039062 " clip-rule="nonzero"/></clipPath><clipPath id="1b75126b16"><path d="M -459.003906 619.273438 L -274.695312 63.339844 L 458.125 306.296875 L 273.8125 862.226562 Z M -459.003906 619.273438 " clip-rule="nonzero"/></clipPath><clipPath id="a48dd425ef"><path d="M 181 306 L 229 306 L 229 405 L 181 405 Z M 181 306 " clip-rule="nonzero"/></clipPath><clipPath id="e5bd355016"><path d="M 181.199219 385.039062 L 207.09375 306.933594 L 264.523438 325.972656 L 238.628906 404.082031 Z M 181.199219 385.039062 " clip-rule="nonzero"/></clipPath><clipPath id="dded9770c4"><path d="M -459.003906 619.273438 L -274.695312 63.339844 L 458.125 306.296875 L 273.8125 862.226562 Z M -459.003906 619.273438 " clip-rule="nonzero"/></clipPath><clipPath id="38f6132c46"><path d="M 181 306 L 233 306 L 233 405 L 181 405 Z M 181 306 " clip-rule="nonzero"/></clipPath><clipPath id="c1e30bc3a1"><path d="M 181.199219 385.039062 L 207.09375 306.933594 L 264.523438 325.972656 L 238.628906 404.082031 Z M 181.199219 385.039062 " clip-rule="nonzero"/></clipPath><clipPath id="155a3c175e"><path d="M -459.003906 619.273438 L -274.695312 63.339844 L 458.125 306.296875 L 273.8125 862.226562 Z M -459.003906 619.273438 " clip-rule="nonzero"/></clipPath><clipPath id="4bda9eb785"><path d="M 232 287 L 272 287 L 272 334 L 232 334 Z M 232 287 " clip-rule="nonzero"/></clipPath><clipPath id="2ea158244a"><path d="M 232.140625 323.921875 L 244.324219 287.164062 L 271.894531 296.304688 L 259.707031 333.058594 Z M 232.140625 323.921875 " clip-rule="nonzero"/></clipPath><clipPath id="bd2d6747d9"><path d="M -66.375 433.140625 L 19.6875 173.550781 L 361.976562 287.03125 L 275.914062 546.621094 Z M -66.375 433.140625 " clip-rule="nonzero"/></clipPath><clipPath id="77fc9dfaa0"><path d="M 232 287 L 254 287 L 254 334 L 232 334 Z M 232 287 " clip-rule="nonzero"/></clipPath><clipPath id="b03a0022b5"><path d="M 232.140625 323.921875 L 244.324219 287.164062 L 271.894531 296.304688 L 259.707031 333.058594 Z M 232.140625 323.921875 " clip-rule="nonzero"/></clipPath><clipPath id="558de18abf"><path d="M -66.375 433.140625 L 19.6875 173.550781 L 361.976562 287.03125 L 275.914062 546.621094 Z M -66.375 433.140625 " clip-rule="nonzero"/></clipPath><clipPath id="32c375361f"><path d="M 232 287 L 257 287 L 257 334 L 232 334 Z M 232 287 " clip-rule="nonzero"/></clipPath><clipPath id="22c317a7e0"><path d="M 232.140625 323.921875 L 244.324219 287.164062 L 271.894531 296.304688 L 259.707031 333.058594 Z M 232.140625 323.921875 " clip-rule="nonzero"/></clipPath><clipPath id="a5cb654538"><path d="M -66.375 433.140625 L 19.6875 173.550781 L 361.976562 287.03125 L 275.914062 546.621094 Z M -66.375 433.140625 " clip-rule="nonzero"/></clipPath><clipPath id="3b2440cab0"><path d="M 235 269 L 282 269 L 282 318 L 235 318 Z M 235 269 " clip-rule="nonzero"/></clipPath><clipPath id="3e9fe71a7a"><path d="M 235.714844 300.921875 L 258.382812 269.523438 L 281.929688 286.523438 L 259.261719 317.921875 Z M 235.714844 300.921875 " clip-rule="nonzero"/></clipPath><clipPath id="231965dc1f"><path d="M -81.820312 315.398438 L 78.261719 93.664062 L 370.636719 304.746094 L 210.554688 526.480469 Z M -81.820312 315.398438 " clip-rule="nonzero"/></clipPath><clipPath id="9bd7cc510d"><path d="M 235 269 L 241 269 L 241 318 L 235 318 Z M 235 269 " clip-rule="nonzero"/></clipPath><clipPath id="d37726bc37"><path d="M 235.714844 300.921875 L 258.382812 269.523438 L 281.929688 286.523438 L 259.261719 317.921875 Z M 235.714844 300.921875 " clip-rule="nonzero"/></clipPath><clipPath id="ad615c6abe"><path d="M -81.820312 315.398438 L 78.261719 93.664062 L 370.636719 304.746094 L 210.554688 526.480469 Z M -81.820312 315.398438 " clip-rule="nonzero"/></clipPath><clipPath id="aca0b87a94"><path d="M 178 413 L 228 413 L 228 455 L 178 455 Z M 178 413 " clip-rule="nonzero"/></clipPath><clipPath id="d4b3529e25"><path d="M 182.171875 413.085938 L 227.894531 417.996094 L 224.019531 454.089844 L 178.296875 449.179688 Z M 182.171875 413.085938 " clip-rule="nonzero"/></clipPath><clipPath id="84cecec3cb"><path d="M -26.71875 82.773438 L 307.765625 118.691406 L 260.480469 559.054688 L -74.003906 523.140625 Z M -26.71875 82.773438 " clip-rule="nonzero"/></clipPath><clipPath id="f12dc7907b"><path d="M 178 413 L 228 413 L 228 453 L 178 453 Z M 178 413 " clip-rule="nonzero"/></clipPath><clipPath id="99f7065159"><path d="M 182.171875 413.085938 L 227.894531 417.996094 L 224.019531 454.089844 L 178.296875 449.179688 Z M 182.171875 413.085938 " clip-rule="nonzero"/></clipPath><clipPath id="88dbde2496"><path d="M -26.71875 82.773438 L 307.765625 118.691406 L 260.480469 559.054688 L -74.003906 523.140625 Z M -26.71875 82.773438 " clip-rule="nonzero"/></clipPath><clipPath id="ef43063ddb"><path d="M 178 413 L 228 413 L 228 455 L 178 455 Z M 178 413 " clip-rule="nonzero"/></clipPath><clipPath id="ce507455a9"><path d="M 182.171875 413.085938 L 227.894531 417.996094 L 224.019531 454.089844 L 178.296875 449.179688 Z M 182.171875 413.085938 " clip-rule="nonzero"/></clipPath><clipPath id="e292a9a709"><path d="M -26.71875 82.773438 L 307.765625 118.691406 L 260.480469 559.054688 L -74.003906 523.140625 Z M -26.71875 82.773438 " clip-rule="nonzero"/></clipPath><clipPath id="c259419733"><path d="M 220 423 L 237 423 L 237 443 L 220 443 Z M 220 423 " clip-rule="nonzero"/></clipPath><clipPath id="0d2fc4360a"><path d="M 220.125 439.949219 L 224.371094 423.546875 L 236.085938 426.578125 L 231.839844 442.980469 Z M 220.125 439.949219 " clip-rule="nonzero"/></clipPath><clipPath id="bad4274196"><path d="M 99.292969 493.554688 L 127.800781 383.433594 L 273.066406 421.039062 L 244.558594 531.160156 Z M 99.292969 493.554688 " clip-rule="nonzero"/></clipPath><clipPath id="f69823638a"><path d="M 220 423 L 231 423 L 231 443 L 220 443 Z M 220 423 " clip-rule="nonzero"/></clipPath><clipPath id="0641b1b8e4"><path d="M 220.125 439.949219 L 224.371094 423.546875 L 236.085938 426.578125 L 231.839844 442.980469 Z M 220.125 439.949219 " clip-rule="nonzero"/></clipPath><clipPath id="4c94380498"><path d="M 99.292969 493.554688 L 127.800781 383.433594 L 273.066406 421.039062 L 244.558594 531.160156 Z M 99.292969 493.554688 " clip-rule="nonzero"/></clipPath><clipPath id="1cfb07aeba"><path d="M 220 423 L 233 423 L 233 443 L 220 443 Z M 220 423 " clip-rule="nonzero"/></clipPath><clipPath id="57e01ab636"><path d="M 220.125 439.949219 L 224.371094 423.546875 L 236.085938 426.578125 L 231.839844 442.980469 Z M 220.125 439.949219 " clip-rule="nonzero"/></clipPath><clipPath id="5a11e38340"><path d="M 99.292969 493.554688 L 127.800781 383.433594 L 273.066406 421.039062 L 244.558594 531.160156 Z M 99.292969 493.554688 " clip-rule="nonzero"/></clipPath><clipPath id="7e9b0af754"><path d="M 170 417 L 187 417 L 187 437 L 170 437 Z M 170 417 " clip-rule="nonzero"/></clipPath><clipPath id="15336a3458"><path d="M 170.601562 433.65625 L 174.847656 417.253906 L 186.5625 420.285156 L 182.316406 436.6875 Z M 170.601562 433.65625 " clip-rule="nonzero"/></clipPath><clipPath id="cf706f4fd0"><path d="M 49.773438 487.261719 L 78.28125 377.140625 L 223.542969 414.746094 L 195.039062 524.867188 Z M 49.773438 487.261719 " clip-rule="nonzero"/></clipPath><clipPath id="08afd45365"><path d="M 170 417 L 182 417 L 182 437 L 170 437 Z M 170 417 " clip-rule="nonzero"/></clipPath><clipPath id="887295680d"><path d="M 170.601562 433.65625 L 174.847656 417.253906 L 186.5625 420.285156 L 182.316406 436.6875 Z M 170.601562 433.65625 " clip-rule="nonzero"/></clipPath><clipPath id="a88d7d8b11"><path d="M 49.773438 487.261719 L 78.28125 377.140625 L 223.542969 414.746094 L 195.039062 524.867188 Z M 49.773438 487.261719 " clip-rule="nonzero"/></clipPath><clipPath id="ba6a79eb61"><path d="M 170 417 L 184 417 L 184 437 L 170 437 Z M 170 417 " clip-rule="nonzero"/></clipPath><clipPath id="b44ede6734"><path d="M 170.601562 433.65625 L 174.847656 417.253906 L 186.5625 420.285156 L 182.316406 436.6875 Z M 170.601562 433.65625 " clip-rule="nonzero"/></clipPath><clipPath id="e36af6029e"><path d="M 49.773438 487.261719 L 78.28125 377.140625 L 223.542969 414.746094 L 195.039062 524.867188 Z M 49.773438 487.261719 " clip-rule="nonzero"/></clipPath><clipPath id="68523f0b1d"><path d="M 254 271 L 294 271 L 294 299 L 254 299 Z M 254 271 " clip-rule="nonzero"/></clipPath><clipPath id="6a729ad99e"><path d="M 254.285156 268.761719 L 284.304688 259.339844 L 293.726562 289.359375 L 263.707031 298.78125 Z M 254.285156 268.761719 " clip-rule="nonzero"/></clipPath><clipPath id="1072bb721e"><path d="M -9.582031 185.128906 L 237.492188 107.578125 L 339.691406 433.164062 L 92.613281 510.714844 Z M -9.582031 185.128906 " clip-rule="nonzero"/></clipPath><clipPath id="456fa55266"><path d="M 207.703125 418.234375 L 239 418.234375 L 239 449.695312 L 207.703125 449.695312 Z M 207.703125 418.234375 " clip-rule="nonzero"/></clipPath><clipPath id="30bd071fa6"><path d="M 166.070312 412.046875 L 197 412.046875 L 197 443 L 166.070312 443 Z M 166.070312 412.046875 " clip-rule="nonzero"/></clipPath><clipPath id="b262a2c3e4"><path d="M 168 367 L 209 367 L 209 395 L 168 395 Z M 168 367 " clip-rule="nonzero"/></clipPath><clipPath id="b5fb45fff3"><path d="M 208.640625 396.667969 L 179.058594 407.382812 L 168.339844 377.800781 L 197.921875 367.085938 Z M 208.640625 396.667969 " clip-rule="nonzero"/></clipPath><clipPath id="8feac984fe"><path d="M 475.890625 468.757812 L 232.417969 556.972656 L 116.175781 236.132812 L 359.648438 147.917969 Z M 475.890625 468.757812 " clip-rule="nonzero"/></clipPath><clipPath id="5451b0b2cf"><path d="M 180 365 L 213 365 L 213 395 L 180 395 Z M 180 365 " clip-rule="nonzero"/></clipPath><clipPath id="358740ae43"><path d="M 180.695312 361.179688 L 211.980469 357.859375 L 215.558594 391.554688 L 184.269531 394.875 Z M 180.695312 361.179688 " clip-rule="nonzero"/></clipPath><clipPath id="a97748c9eb"><path d="M -67.578125 223.816406 L 194.75 195.976562 L 231.53125 542.539062 L -30.800781 570.378906 Z M -67.578125 223.816406 " clip-rule="nonzero"/></clipPath><clipPath id="01ab39568c"><path d="M 184.882812 366 L 211 366 L 211 395.21875 L 184.882812 395.21875 Z M 184.882812 366 " clip-rule="nonzero"/></clipPath></defs><rect x="-76.8" width="921.6" fill="#ffffff" y="-57.6" height="691.2" fill-opacity="1"/><rect x="-76.8" width="921.6" fill="#ffffff" y="-57.6" height="691.2" fill-opacity="1"/><path fill="#b31d34" d="M 278.175781 281.824219 C 270.953125 304.886719 250.183594 332.644531 220.414062 355.082031 C 203.769531 367.625 199.121094 382.375 199.035156 394.808594 C 200.304688 394.710938 201.59375 394.660156 202.890625 394.667969 C 210.4375 394.695312 217.8125 396.539062 224.214844 399.996094 C 227.875 401.972656 231.117188 404.417969 233.863281 407.21875 C 254.628906 403.308594 274.53125 389.039062 286.359375 367.121094 C 302.609375 337.007812 298.433594 302.074219 278.175781 281.824219 " fill-opacity="1" fill-rule="nonzero"/><path fill="#b31d34" d="M 192.183594 433.136719 C 180.03125 428.800781 171.589844 429.144531 166.417969 430.359375 C 166.417969 430.546875 166.410156 430.730469 166.410156 430.917969 C 166.339844 448.320312 182.554688 462.484375 202.621094 462.566406 C 220.148438 462.636719 234.820312 451.933594 238.300781 437.628906 C 227.15625 443.238281 210.070312 439.515625 192.183594 433.136719 " fill-opacity="1" fill-rule="nonzero"/><path fill="#b31d34" d="M 171.398438 355.019531 C 166.492188 298.894531 216.042969 273.175781 216.042969 273.175781 C 172.28125 313.421875 171.398438 355.019531 171.398438 355.019531 Z M 266.15625 272.683594 C 265.828125 272.5 265.503906 272.3125 265.171875 272.136719 C 234.183594 255.414062 193.429688 270.828125 174.144531 306.566406 C 157.300781 337.785156 162.40625 374.179688 184.617188 394.03125 C 185.234375 368.796875 208.183594 341.851562 236.625 316.015625 C 255.949219 298.460938 263.386719 283.070312 266.15625 272.683594 " fill-opacity="1" fill-rule="nonzero"/><path fill="#b31d34" d="M 175.554688 413.84375 C 198.945312 395.074219 224.976562 409.402344 224.976562 409.402344 C 194.226562 401.933594 175.554688 413.84375 175.554688 413.84375 Z M 202.871094 399.554688 C 185.960938 399.488281 171.710938 409.445312 167.601562 422.992188 C 179.335938 420.765625 196.273438 423.351562 212.988281 431.101562 C 224.675781 436.523438 233.503906 432.949219 238.988281 428.796875 C 237.632812 412.515625 222.003906 399.628906 202.871094 399.554688 " fill-opacity="1" fill-rule="nonzero"/><path fill="#49602d" d="M 152.398438 378.738281 C 152.398438 378.738281 131.710938 315.324219 184.898438 269.371094 C 269.320312 196.433594 257.949219 108.054688 257.949219 108.054688 C 257.949219 108.054688 114.363281 111.441406 90.515625 233.21875 C 70.476562 335.535156 152.039062 407.265625 152.039062 407.265625 C 152.039062 407.265625 94.523438 317.761719 142.273438 234.402344 C 142.273438 234.402344 115.464844 306.914062 152.398438 378.738281 " fill-opacity="1" fill-rule="nonzero"/><g clip-path="url(#aaed10b4a5)"><path fill="#49602d" d="M 143.703125 458.058594 C 143.703125 458.058594 132.742188 430.070312 101.082031 429.3125 C 50.828125 428.109375 29.480469 394.105469 29.480469 394.105469 C 29.480469 394.105469 80.402344 354.171875 123.566406 389.714844 C 159.832031 419.570312 151.996094 467.878906 151.996094 467.878906 C 151.996094 467.878906 146.378906 420.273438 105.902344 404.945312 C 105.902344 404.945312 135.988281 422.492188 143.703125 458.058594 " fill-opacity="1" fill-rule="nonzero"/></g><g clip-path="url(#c52fadc9fa)"><g clip-path="url(#01cd418404)"><g clip-path="url(#5a94c6dcde)"><path fill="#b31d34" d="M 148.496094 274.515625 C 168.113281 288.628906 187.925781 317.082031 199.855469 352.398438 C 206.519531 372.144531 219.058594 381.199219 230.835938 385.191406 C 231.144531 383.953125 231.5 382.714844 231.914062 381.488281 C 234.316406 374.332031 238.386719 367.914062 243.679688 362.921875 C 246.710938 360.070312 250.050781 357.765625 253.574219 356.039062 C 256.398438 335.097656 249.117188 311.714844 232.035156 293.589844 C 208.566406 268.691406 174.089844 261.660156 148.496094 274.515625 " fill-opacity="1" fill-rule="nonzero"/></g></g></g><g clip-path="url(#83e60a0778)"><g clip-path="url(#c6edced734)"><g clip-path="url(#da8796cb71)"><path fill="#b31d34" d="M 184.371094 398.90625 C 129.550781 385.898438 120.734375 330.769531 120.734375 330.769531 C 145.164062 384.972656 184.371094 398.90625 184.371094 398.90625 Z M 136.035156 283.050781 C 135.757812 283.300781 135.480469 283.550781 135.207031 283.808594 C 109.582031 307.960938 111.390625 351.496094 139.246094 381.046875 C 163.574219 406.863281 199.726562 413.46875 225.5625 398.632812 C 201.800781 390.105469 183.449219 359.84375 167.875 324.714844 C 157.296875 300.847656 145.027344 288.945312 136.035156 283.050781 " fill-opacity="1" fill-rule="nonzero"/></g></g></g><g clip-path="url(#28368f4098)"><g clip-path="url(#f328457b7e)"><g clip-path="url(#ca599a3d4b)"><path fill="#95a94b" d="M 200.90625 424.402344 C 200.90625 424.402344 134.203125 424.082031 107.324219 359.132812 C 64.65625 256.050781 -22.8125 239.03125 -22.8125 239.03125 C -22.8125 239.03125 -64.78125 376.386719 43.304688 437.347656 C 134.117188 488.566406 227.871094 433.722656 227.871094 433.722656 C 227.871094 433.722656 124.816406 460.148438 60.714844 388.59375 C 60.714844 388.59375 121.109375 436.859375 200.90625 424.402344 " fill-opacity="1" fill-rule="nonzero"/></g></g></g><g clip-path="url(#fb10ee31fa)"><g clip-path="url(#59176bee7f)"><g clip-path="url(#9c9b80d4a0)"><path fill="#b31d34" d="M 168.183594 274.515625 C 187.800781 288.628906 207.613281 317.082031 219.542969 352.398438 C 226.207031 372.144531 238.746094 381.199219 250.523438 385.191406 C 250.832031 383.953125 251.1875 382.714844 251.601562 381.488281 C 254.003906 374.332031 258.074219 367.914062 263.371094 362.921875 C 266.398438 360.070312 269.742188 357.765625 273.261719 356.039062 C 276.089844 335.097656 268.804688 311.714844 251.722656 293.589844 C 228.253906 268.691406 193.78125 261.660156 168.183594 274.515625 " fill-opacity="1" fill-rule="nonzero"/></g></g></g><g clip-path="url(#83d7da4d02)"><g clip-path="url(#47d7d33cad)"><g clip-path="url(#6ad2d6c887)"><path fill="#b31d34" d="M 204.058594 398.90625 C 149.238281 385.898438 140.421875 330.769531 140.421875 330.769531 C 164.851562 384.972656 204.058594 398.90625 204.058594 398.90625 Z M 155.726562 283.050781 C 155.445312 283.300781 155.167969 283.550781 154.894531 283.808594 C 129.269531 307.960938 131.078125 351.496094 158.933594 381.046875 C 183.261719 406.863281 219.417969 413.46875 245.25 398.632812 C 221.488281 390.105469 203.136719 359.84375 187.5625 324.714844 C 176.984375 300.847656 164.714844 288.945312 155.726562 283.050781 " fill-opacity="1" fill-rule="nonzero"/></g></g></g><g clip-path="url(#647b4a5806)"><g clip-path="url(#2a8bbc4fa6)"><g clip-path="url(#f072839b15)"><path fill="#95a94b" d="M 220.59375 424.402344 C 220.59375 424.402344 153.890625 424.082031 127.011719 359.132812 C 84.347656 256.050781 -3.125 239.03125 -3.125 239.03125 C -3.125 239.03125 -45.09375 376.386719 62.992188 437.347656 C 153.804688 488.566406 247.558594 433.722656 247.558594 433.722656 C 247.558594 433.722656 144.503906 460.148438 80.40625 388.59375 C 80.40625 388.59375 140.796875 436.859375 220.59375 424.402344 " fill-opacity="1" fill-rule="nonzero"/></g></g></g><g clip-path="url(#b4ae2a3a06)"><g clip-path="url(#3115d8b90c)"><g clip-path="url(#1b75126b16)"><path fill="#b31d34" d="M 62.753906 230.300781 C 104.828125 260.574219 147.324219 321.59375 172.90625 397.34375 C 187.207031 439.691406 214.101562 459.113281 239.359375 467.679688 C 240.015625 465.023438 240.78125 462.367188 241.671875 459.738281 C 246.824219 444.390625 255.554688 430.625 266.910156 419.917969 C 273.40625 413.800781 280.574219 408.855469 288.125 405.152344 C 294.1875 360.234375 278.570312 310.085938 241.929688 271.214844 C 191.589844 217.808594 117.652344 202.730469 62.753906 230.300781 " fill-opacity="1" fill-rule="nonzero"/></g></g></g><g clip-path="url(#a48dd425ef)"><g clip-path="url(#e5bd355016)"><g clip-path="url(#dded9770c4)"><path fill="#b31d34" d="M 139.703125 497.089844 C 22.121094 469.195312 3.207031 350.957031 3.207031 350.957031 C 55.605469 467.210938 139.703125 497.089844 139.703125 497.089844 Z M 36.03125 248.605469 C 35.433594 249.144531 34.839844 249.679688 34.25 250.234375 C -20.707031 302.039062 -16.828125 395.40625 42.914062 458.792969 C 95.097656 514.15625 172.636719 528.324219 228.046875 496.503906 C 177.082031 478.21875 137.71875 413.3125 104.316406 337.96875 C 81.628906 286.777344 55.3125 261.246094 36.03125 248.605469 " fill-opacity="1" fill-rule="nonzero"/></g></g></g><g clip-path="url(#38f6132c46)"><g clip-path="url(#c1e30bc3a1)"><g clip-path="url(#155a3c175e)"><path fill="#95a94b" d="M 175.167969 551.777344 C 175.167969 551.777344 32.097656 551.089844 -25.554688 411.792969 C -117.0625 190.695312 -304.667969 154.195312 -304.667969 154.195312 C -304.667969 154.195312 -394.6875 448.792969 -162.859375 579.542969 C 31.914062 689.394531 232.996094 571.765625 232.996094 571.765625 C 232.996094 571.765625 11.960938 628.449219 -125.515625 474.972656 C -125.515625 474.972656 4.011719 578.492188 175.167969 551.777344 " fill-opacity="1" fill-rule="nonzero"/></g></g></g><g clip-path="url(#4bda9eb785)"><g clip-path="url(#2ea158244a)"><g clip-path="url(#bd2d6747d9)"><path fill="#b31d34" d="M 176.894531 251.785156 C 196.511719 265.898438 216.328125 294.351562 228.253906 329.667969 C 234.921875 349.414062 247.460938 358.46875 259.238281 362.460938 C 259.542969 361.222656 259.902344 359.984375 260.316406 358.757812 C 262.71875 351.605469 266.789062 345.183594 272.082031 340.191406 C 275.109375 337.339844 278.453125 335.035156 281.972656 333.308594 C 284.800781 312.367188 277.519531 288.984375 260.4375 270.859375 C 236.964844 245.960938 202.492188 238.933594 176.894531 251.785156 " fill-opacity="1" fill-rule="nonzero"/></g></g></g><g clip-path="url(#77fc9dfaa0)"><g clip-path="url(#b03a0022b5)"><g clip-path="url(#558de18abf)"><path fill="#b31d34" d="M 212.773438 376.175781 C 157.953125 363.167969 149.132812 308.042969 149.132812 308.042969 C 173.5625 362.242188 212.773438 376.175781 212.773438 376.175781 Z M 164.4375 260.320312 C 164.160156 260.570312 163.882812 260.820312 163.609375 261.078125 C 137.984375 285.234375 139.792969 328.765625 167.644531 358.316406 C 191.976562 384.132812 228.128906 390.738281 253.960938 375.902344 C 230.199219 367.375 211.847656 337.113281 196.273438 301.984375 C 185.695312 278.117188 173.425781 266.214844 164.4375 260.320312 " fill-opacity="1" fill-rule="nonzero"/></g></g></g><g clip-path="url(#32c375361f)"><g clip-path="url(#22c317a7e0)"><g clip-path="url(#a5cb654538)"><path fill="#95a94b" d="M 229.308594 401.671875 C 229.308594 401.671875 162.601562 401.351562 135.722656 336.40625 C 93.058594 233.320312 5.589844 216.300781 5.589844 216.300781 C 5.589844 216.300781 -36.382812 353.65625 71.707031 414.617188 C 162.519531 465.835938 256.269531 410.992188 256.269531 410.992188 C 256.269531 410.992188 153.214844 437.417969 89.117188 365.863281 C 89.117188 365.863281 149.507812 414.128906 229.308594 401.671875 " fill-opacity="1" fill-rule="nonzero"/></g></g></g><g clip-path="url(#3b2440cab0)"><g clip-path="url(#3e9fe71a7a)"><g clip-path="url(#231965dc1f)"><path fill="#b31d34" d="M 204.699219 215.519531 C 219.167969 234.875 229.519531 267.964844 230.285156 305.234375 C 230.710938 326.070312 239.949219 338.476562 249.980469 345.820312 C 250.644531 344.734375 251.359375 343.660156 252.121094 342.613281 C 256.5625 336.511719 262.375 331.613281 268.921875 328.441406 C 272.667969 326.632812 276.550781 325.4375 280.425781 324.847656 C 289.414062 305.722656 289.496094 281.234375 278.648438 258.816406 C 263.742188 228.011719 232.976562 210.949219 204.699219 215.519531 " fill-opacity="1" fill-rule="nonzero"/></g></g></g><g clip-path="url(#9bd7cc510d)"><g clip-path="url(#d37726bc37)"><g clip-path="url(#ad615c6abe)"><path fill="#b31d34" d="M 201.542969 344.941406 C 153.164062 316.0625 161.316406 260.832031 161.316406 260.832031 C 168.332031 319.871094 201.542969 344.941406 201.542969 344.941406 Z M 190.253906 219.917969 C 189.910156 220.074219 189.570312 220.226562 189.230469 220.390625 C 157.535156 235.730469 146.179688 277.792969 163.867188 314.351562 C 179.316406 346.28125 211.816406 363.445312 240.914062 357.054688 C 220.8125 341.785156 212.398438 307.40625 208.097656 269.222656 C 205.179688 243.277344 197.054688 228.238281 190.253906 219.917969 " fill-opacity="1" fill-rule="nonzero"/></g></g></g><g clip-path="url(#aca0b87a94)"><g clip-path="url(#d4b3529e25)"><g clip-path="url(#84cecec3cb)"><path fill="#b31d34" d="M 254.492188 327.9375 C 242.636719 355.183594 213.601562 386.394531 174.261719 409.914062 C 152.265625 423.0625 144.648438 440.484375 142.914062 455.675781 C 144.480469 455.722656 146.058594 455.832031 147.640625 456.011719 C 156.863281 457.035156 165.636719 460.257812 173.015625 465.320312 C 177.226562 468.21875 180.871094 471.636719 183.859375 475.417969 C 209.761719 473.367188 235.964844 458.535156 253.300781 433.292969 C 277.117188 398.609375 276.597656 355.355469 254.492188 327.9375 " fill-opacity="1" fill-rule="nonzero"/></g></g></g><g clip-path="url(#f12dc7907b)"><g clip-path="url(#99f7065159)"><g clip-path="url(#88dbde2496)"><path fill="#b31d34" d="M 114.347656 403.40625 C 115.714844 334.144531 179.671875 309.207031 179.671875 309.207031 C 120.890625 352.664062 114.347656 403.40625 114.347656 403.40625 Z M 241 315.1875 C 240.621094 314.917969 240.25 314.648438 239.871094 314.386719 C 204.179688 289.875 152.335938 303.371094 124.066406 344.53125 C 99.375 380.484375 100.839844 425.648438 125.390625 452.835938 C 129.453125 422.0625 161.046875 392.136719 199.210938 364.285156 C 225.140625 345.363281 236.253906 327.523438 241 315.1875 " fill-opacity="1" fill-rule="nonzero"/></g></g></g><g clip-path="url(#ef43063ddb)"><g clip-path="url(#ce507455a9)"><g clip-path="url(#e292a9a709)"><path fill="#95a94b" d="M 88.007812 429.910156 C 88.007812 429.910156 71.042969 349.667969 142.097656 300.472656 C 254.878906 222.386719 252.578125 112.847656 252.578125 112.847656 C 252.578125 112.847656 76.601562 98.136719 31.457031 243.882812 C -6.472656 366.335938 83.820312 464.734375 83.820312 464.734375 C 83.820312 464.734375 25.257812 347.765625 94.574219 252.125 C 94.574219 252.125 52.28125 337.253906 88.007812 429.910156 " fill-opacity="1" fill-rule="nonzero"/></g></g></g><g clip-path="url(#c259419733)"><g clip-path="url(#0d2fc4360a)"><g clip-path="url(#bad4274196)"><path fill="#b31d34" d="M 195.203125 411.542969 C 203.734375 416.855469 212.746094 428.109375 218.675781 442.433594 C 221.992188 450.441406 227.445312 453.851562 232.445312 455.179688 C 232.535156 454.660156 232.648438 454.136719 232.789062 453.613281 C 233.585938 450.578125 235.097656 447.804688 237.15625 445.585938 C 238.332031 444.316406 239.65625 443.265625 241.070312 442.453125 C 241.660156 433.683594 237.988281 424.183594 230.398438 417.136719 C 219.964844 407.457031 205.464844 405.496094 195.203125 411.542969 " fill-opacity="1" fill-rule="nonzero"/></g></g></g><g clip-path="url(#f69823638a)"><g clip-path="url(#0641b1b8e4)"><g clip-path="url(#4c94380498)"><path fill="#b31d34" d="M 213.542969 462.164062 C 190.433594 458.289062 185.242188 435.65625 185.242188 435.65625 C 196.886719 457.46875 213.542969 462.164062 213.542969 462.164062 Z M 190.269531 415.429688 C 190.160156 415.542969 190.050781 415.652344 189.945312 415.765625 C 179.984375 426.5 181.941406 444.515625 194.320312 456.003906 C 205.132812 466.042969 220.320312 467.777344 230.628906 460.90625 C 220.53125 458.027344 212.074219 445.980469 204.636719 431.835938 C 199.585938 422.222656 194.164062 417.625 190.269531 415.429688 " fill-opacity="1" fill-rule="nonzero"/></g></g></g><g clip-path="url(#1cfb07aeba)"><g clip-path="url(#57e01ab636)"><g clip-path="url(#5a11e38340)"><path fill="#95a94b" d="M 221.113281 472.285156 C 221.113281 472.285156 193.425781 474.003906 180.464844 447.800781 C 159.898438 406.207031 123.128906 401.574219 123.128906 401.574219 C 123.128906 401.574219 109.527344 459.738281 156.074219 482.03125 C 195.179688 500.765625 232.558594 475.402344 232.558594 475.402344 C 232.558594 475.402344 190.53125 489.230469 161.945312 461.316406 C 161.945312 461.316406 188.34375 479.667969 221.113281 472.285156 " fill-opacity="1" fill-rule="nonzero"/></g></g></g><g clip-path="url(#7e9b0af754)"><g clip-path="url(#15336a3458)"><g clip-path="url(#cf706f4fd0)"><path fill="#b31d34" d="M 145.679688 405.25 C 154.210938 410.5625 163.226562 421.816406 169.15625 436.140625 C 172.46875 444.148438 177.925781 447.558594 182.921875 448.890625 C 183.015625 448.367188 183.128906 447.84375 183.265625 447.324219 C 184.066406 444.285156 185.574219 441.511719 187.632812 439.292969 C 188.8125 438.023438 190.136719 436.972656 191.546875 436.160156 C 192.140625 427.390625 188.46875 417.890625 180.875 410.84375 C 170.445312 401.164062 155.945312 399.203125 145.679688 405.25 " fill-opacity="1" fill-rule="nonzero"/></g></g></g><g clip-path="url(#08afd45365)"><g clip-path="url(#887295680d)"><g clip-path="url(#a88d7d8b11)"><path fill="#b31d34" d="M 164.023438 455.871094 C 140.914062 451.996094 135.722656 429.363281 135.722656 429.363281 C 147.363281 451.175781 164.023438 455.871094 164.023438 455.871094 Z M 140.746094 409.136719 C 140.640625 409.25 140.53125 409.359375 140.425781 409.476562 C 130.460938 420.210938 132.421875 438.222656 144.800781 449.714844 C 155.613281 459.75 170.800781 461.488281 181.105469 454.613281 C 171.011719 451.734375 162.554688 439.6875 155.117188 425.542969 C 150.0625 415.933594 144.640625 411.332031 140.746094 409.136719 " fill-opacity="1" fill-rule="nonzero"/></g></g></g><g clip-path="url(#ba6a79eb61)"><g clip-path="url(#b44ede6734)"><g clip-path="url(#e36af6029e)"><path fill="#95a94b" d="M 171.589844 465.992188 C 171.589844 465.992188 143.902344 467.710938 130.945312 441.507812 C 110.378906 399.914062 73.609375 395.28125 73.609375 395.28125 C 73.609375 395.28125 60.007812 453.445312 106.550781 475.738281 C 145.660156 494.472656 183.039062 469.109375 183.039062 469.109375 C 183.039062 469.109375 141.007812 482.9375 112.421875 455.023438 C 112.421875 455.023438 138.824219 473.375 171.589844 465.992188 " fill-opacity="1" fill-rule="nonzero"/></g></g></g><g clip-path="url(#68523f0b1d)"><g clip-path="url(#6a729ad99e)"><g clip-path="url(#1072bb721e)"><path fill="#b31d34" d="M 263.773438 271.464844 C 263.789062 294.292969 252.921875 325.195312 232.433594 353.839844 C 220.980469 369.855469 220.960938 384.46875 224.40625 395.699219 C 225.523438 395.25 226.667969 394.839844 227.839844 394.480469 C 234.648438 392.371094 241.820312 391.949219 248.570312 393.25 C 252.425781 393.996094 256.042969 395.285156 259.308594 397.03125 C 276.925781 387.632812 290.824219 369.136719 295.285156 346.035156 C 301.410156 314.292969 287.761719 283.984375 263.773438 271.464844 " fill-opacity="1" fill-rule="nonzero"/></g></g></g><g clip-path="url(#456fa55266)"><path fill="#b31d34" d="M 238.484375 433.625 C 238.484375 434.632812 238.386719 435.636719 238.1875 436.625 C 237.992188 437.617188 237.699219 438.582031 237.3125 439.515625 C 236.925781 440.449219 236.453125 441.335938 235.890625 442.175781 C 235.328125 443.015625 234.691406 443.792969 233.976562 444.507812 C 233.261719 445.222656 232.484375 445.859375 231.644531 446.421875 C 230.804688 446.984375 229.917969 447.457031 228.984375 447.84375 C 228.050781 448.230469 227.085938 448.523438 226.097656 448.71875 C 225.105469 448.917969 224.105469 449.015625 223.09375 449.015625 C 222.082031 449.015625 221.082031 448.917969 220.089844 448.71875 C 219.101562 448.523438 218.136719 448.230469 217.203125 447.84375 C 216.269531 447.457031 215.382812 446.984375 214.542969 446.421875 C 213.703125 445.859375 212.925781 445.222656 212.210938 444.507812 C 211.496094 443.792969 210.859375 443.015625 210.296875 442.175781 C 209.734375 441.335938 209.261719 440.449219 208.875 439.515625 C 208.488281 438.582031 208.195312 437.617188 208 436.625 C 207.800781 435.636719 207.703125 434.632812 207.703125 433.625 C 207.703125 432.613281 207.800781 431.613281 208 430.621094 C 208.195312 429.628906 208.488281 428.667969 208.875 427.734375 C 209.261719 426.800781 209.734375 425.914062 210.296875 425.074219 C 210.859375 424.234375 211.496094 423.457031 212.210938 422.742188 C 212.925781 422.027344 213.703125 421.386719 214.542969 420.828125 C 215.382812 420.265625 216.269531 419.792969 217.203125 419.40625 C 218.136719 419.019531 219.101562 418.726562 220.089844 418.527344 C 221.082031 418.332031 222.082031 418.234375 223.09375 418.234375 C 224.105469 418.234375 225.105469 418.332031 226.097656 418.527344 C 227.085938 418.726562 228.050781 419.019531 228.984375 419.40625 C 229.917969 419.792969 230.804688 420.265625 231.644531 420.828125 C 232.484375 421.386719 233.261719 422.027344 233.976562 422.742188 C 234.691406 423.457031 235.328125 424.234375 235.890625 425.074219 C 236.453125 425.914062 236.925781 426.800781 237.3125 427.734375 C 237.699219 428.667969 237.992188 429.628906 238.1875 430.621094 C 238.386719 431.613281 238.484375 432.613281 238.484375 433.625 Z M 238.484375 433.625 " fill-opacity="1" fill-rule="nonzero"/></g><g clip-path="url(#30bd071fa6)"><path fill="#b31d34" d="M 196.851562 427.4375 C 196.851562 428.449219 196.753906 429.449219 196.554688 430.441406 C 196.359375 431.433594 196.066406 432.394531 195.679688 433.328125 C 195.292969 434.261719 194.820312 435.148438 194.257812 435.988281 C 193.695312 436.828125 193.058594 437.605469 192.34375 438.320312 C 191.628906 439.035156 190.851562 439.675781 190.011719 440.234375 C 189.171875 440.796875 188.285156 441.269531 187.351562 441.65625 C 186.417969 442.042969 185.453125 442.335938 184.464844 442.535156 C 183.472656 442.730469 182.472656 442.828125 181.460938 442.828125 C 180.449219 442.828125 179.449219 442.730469 178.457031 442.535156 C 177.464844 442.335938 176.503906 442.042969 175.570312 441.65625 C 174.636719 441.269531 173.75 440.796875 172.910156 440.234375 C 172.070312 439.675781 171.292969 439.035156 170.578125 438.320312 C 169.863281 437.605469 169.226562 436.828125 168.664062 435.988281 C 168.101562 435.148438 167.628906 434.261719 167.242188 433.328125 C 166.855469 432.394531 166.5625 431.433594 166.363281 430.441406 C 166.167969 429.449219 166.070312 428.449219 166.070312 427.4375 C 166.070312 426.429688 166.167969 425.425781 166.363281 424.4375 C 166.5625 423.445312 166.855469 422.480469 167.242188 421.546875 C 167.628906 420.613281 168.101562 419.726562 168.664062 418.886719 C 169.226562 418.046875 169.863281 417.269531 170.578125 416.554688 C 171.292969 415.839844 172.070312 415.203125 172.910156 414.640625 C 173.75 414.078125 174.636719 413.605469 175.570312 413.21875 C 176.503906 412.832031 177.464844 412.539062 178.457031 412.34375 C 179.449219 412.144531 180.449219 412.046875 181.460938 412.046875 C 182.472656 412.046875 183.472656 412.144531 184.464844 412.34375 C 185.453125 412.539062 186.417969 412.832031 187.351562 413.21875 C 188.285156 413.605469 189.171875 414.078125 190.011719 414.640625 C 190.851562 415.203125 191.628906 415.839844 192.34375 416.554688 C 193.058594 417.269531 193.695312 418.046875 194.257812 418.886719 C 194.820312 419.726562 195.292969 420.613281 195.679688 421.546875 C 196.066406 422.480469 196.359375 423.445312 196.554688 424.4375 C 196.753906 425.425781 196.851562 426.429688 196.851562 427.4375 Z M 196.851562 427.4375 " fill-opacity="1" fill-rule="nonzero"/></g><g clip-path="url(#b262a2c3e4)"><g clip-path="url(#b5fb45fff3)"><g clip-path="url(#8feac984fe)"><path fill="#b31d34" d="M 199.042969 394.382812 C 198.039062 371.570312 207.550781 340.230469 226.777344 310.71875 C 237.523438 294.222656 236.90625 279.625 232.976562 268.550781 C 231.878906 269.046875 230.753906 269.507812 229.601562 269.917969 C 222.886719 272.320312 215.742188 273.054688 208.945312 272.050781 C 205.058594 271.472656 201.390625 270.339844 198.050781 268.738281 C 180.859375 278.894531 167.773438 297.972656 164.324219 321.246094 C 159.582031 353.226562 174.53125 382.914062 199.042969 394.382812 " fill-opacity="1" fill-rule="nonzero"/></g></g></g><g clip-path="url(#5451b0b2cf)"><g clip-path="url(#358740ae43)"><g clip-path="url(#a97748c9eb)"><path fill="#b31d34" d="M 189.6875 365.824219 C 185.089844 388.769531 167.925781 417.628906 141.546875 442.277344 C 126.800781 456.054688 123.832031 470.738281 125.023438 482.71875 C 126.234375 482.496094 127.46875 482.316406 128.71875 482.191406 C 135.988281 481.445312 143.28125 482.46875 149.800781 485.140625 C 153.527344 486.667969 156.898438 488.695312 159.828125 491.109375 C 179.429688 485.222656 197.136719 469.449219 206.285156 447.132812 C 218.855469 416.472656 211.265625 383.253906 189.6875 365.824219 " fill-opacity="1" fill-rule="nonzero"/></g></g></g><g clip-path="url(#01ab39568c)"><path fill="#b31d34" d="M 193.335938 366.902344 C 186.339844 389.238281 166.226562 416.121094 137.398438 437.847656 C 121.277344 449.996094 116.777344 464.28125 116.695312 476.324219 C 117.925781 476.226562 119.171875 476.179688 120.425781 476.1875 C 127.734375 476.214844 134.878906 478 141.078125 481.34375 C 144.625 483.257812 147.761719 485.628906 150.421875 488.339844 C 170.535156 484.554688 189.808594 470.734375 201.261719 449.511719 C 216.996094 420.347656 212.953125 386.515625 193.335938 366.902344 " fill-opacity="1" fill-rule="nonzero"/></g><g fill="#49602d" fill-opacity="1"><g transform="translate(265.492811, 305.05656)"><g/></g></g><g fill="#49602d" fill-opacity="1"><g transform="translate(295.199841, 305.05656)"><g><path d="M 82.65625 -34.65625 L 107.703125 -34.65625 C 105.398438 -27.65625 101.796875 -21.425781 96.890625 -15.96875 C 91.992188 -10.519531 86.195312 -6.242188 79.5 -3.140625 C 72.800781 -0.046875 65.550781 1.5 57.75 1.5 C 50.550781 1.5 43.773438 0.148438 37.421875 -2.546875 C 31.078125 -5.242188 25.476562 -9.019531 20.625 -13.875 C 15.769531 -18.726562 11.992188 -24.328125 9.296875 -30.671875 C 6.597656 -37.023438 5.25 -43.800781 5.25 -51 C 5.25 -58.195312 6.597656 -64.96875 9.296875 -71.3125 C 11.992188 -77.664062 15.769531 -83.269531 20.625 -88.125 C 25.476562 -92.976562 31.078125 -96.753906 37.421875 -99.453125 C 43.773438 -102.148438 50.550781 -103.5 57.75 -103.5 C 65.550781 -103.5 72.773438 -101.945312 79.421875 -98.84375 C 86.078125 -95.75 91.851562 -91.523438 96.75 -86.171875 C 101.644531 -80.828125 105.242188 -74.65625 107.546875 -67.65625 L 82.5 -67.65625 C 80.394531 -72.25 77.039062 -75.867188 72.4375 -78.515625 C 67.84375 -81.171875 62.945312 -82.5 57.75 -82.5 C 52.25 -82.5 47.25 -81.070312 42.75 -78.21875 C 38.25 -75.375 34.671875 -71.578125 32.015625 -66.828125 C 29.367188 -62.078125 28.046875 -56.800781 28.046875 -51 C 28.046875 -45.195312 29.367188 -39.921875 32.015625 -35.171875 C 34.671875 -30.421875 38.25 -26.617188 42.75 -23.765625 C 47.25 -20.921875 52.25 -19.5 57.75 -19.5 C 63.050781 -19.5 68 -20.898438 72.59375 -23.703125 C 77.195312 -26.503906 80.550781 -30.15625 82.65625 -34.65625 Z M 82.65625 -34.65625 "/></g></g></g><g fill="#49602d" fill-opacity="1"><g transform="translate(398.849868, 305.05656)"><g><path d="M 43.046875 -15.59375 C 47.046875 -15.59375 50.144531 -16.441406 52.34375 -18.140625 C 54.550781 -19.847656 56.101562 -22.023438 57 -24.671875 C 57.894531 -27.328125 58.34375 -30.050781 58.34375 -32.84375 C 58.34375 -35.644531 57.867188 -38.34375 56.921875 -40.9375 C 55.972656 -43.539062 54.398438 -45.691406 52.203125 -47.390625 C 50.003906 -49.097656 46.953125 -49.953125 43.046875 -49.953125 C 39.148438 -49.953125 36.078125 -49.097656 33.828125 -47.390625 C 31.578125 -45.691406 29.972656 -43.539062 29.015625 -40.9375 C 28.066406 -38.34375 27.59375 -35.644531 27.59375 -32.84375 C 27.59375 -30.050781 28.039062 -27.328125 28.9375 -24.671875 C 29.84375 -22.023438 31.421875 -19.847656 33.671875 -18.140625 C 35.921875 -16.441406 39.046875 -15.59375 43.046875 -15.59375 Z M 43.046875 -67.5 C 49.953125 -67.5 56.253906 -66.046875 61.953125 -63.140625 C 67.648438 -60.242188 72.195312 -56.21875 75.59375 -51.0625 C 79 -45.914062 80.703125 -39.894531 80.703125 -33 C 80.703125 -26 79.023438 -19.921875 75.671875 -14.765625 C 72.328125 -9.617188 67.800781 -5.644531 62.09375 -2.84375 C 56.394531 -0.0507812 50.046875 1.34375 43.046875 1.34375 C 36.046875 1.34375 29.671875 -0.0507812 23.921875 -2.84375 C 18.171875 -5.644531 13.617188 -9.617188 10.265625 -14.765625 C 6.921875 -19.921875 5.25 -26 5.25 -33 C 5.25 -39.894531 6.945312 -45.914062 10.34375 -51.0625 C 13.75 -56.21875 18.328125 -60.242188 24.078125 -63.140625 C 29.828125 -66.046875 36.148438 -67.5 43.046875 -67.5 Z M 43.046875 -67.5 "/></g></g></g><g fill="#49602d" fill-opacity="1"><g transform="translate(476.999874, 305.05656)"><g><path d="M 35.25 -112.5 L 51.90625 -112.5 L 51.90625 -94.953125 L 42.296875 -94.953125 C 39.992188 -94.953125 38.441406 -94.25 37.640625 -92.84375 C 36.847656 -91.445312 36.453125 -89.148438 36.453125 -85.953125 L 36.453125 -66.15625 L 51.90625 -66.15625 L 51.90625 -48.75 L 36.453125 -48.75 L 36.453125 0 L 13.953125 0 L 13.953125 -48.75 L 4.5 -48.75 L 4.5 -66.15625 L 13.953125 -66.15625 L 13.953125 -88.65625 C 13.953125 -96.851562 16 -102.875 20.09375 -106.71875 C 24.195312 -110.570312 29.25 -112.5 35.25 -112.5 Z M 35.25 -112.5 "/></g></g></g><g fill="#49602d" fill-opacity="1"><g transform="translate(523.649881, 305.05656)"><g><path d="M 35.25 -112.5 L 51.90625 -112.5 L 51.90625 -94.953125 L 42.296875 -94.953125 C 39.992188 -94.953125 38.441406 -94.25 37.640625 -92.84375 C 36.847656 -91.445312 36.453125 -89.148438 36.453125 -85.953125 L 36.453125 -66.15625 L 51.90625 -66.15625 L 51.90625 -48.75 L 36.453125 -48.75 L 36.453125 0 L 13.953125 0 L 13.953125 -48.75 L 4.5 -48.75 L 4.5 -66.15625 L 13.953125 -66.15625 L 13.953125 -88.65625 C 13.953125 -96.851562 16 -102.875 20.09375 -106.71875 C 24.195312 -110.570312 29.25 -112.5 35.25 -112.5 Z M 35.25 -112.5 "/></g></g></g><g fill="#49602d" fill-opacity="1"><g transform="translate(570.299888, 305.05656)"><g><path d="M 29.40625 -40.953125 L 58.953125 -40.953125 C 58.953125 -40.953125 58.828125 -41.578125 58.578125 -42.828125 C 58.328125 -44.078125 57.722656 -45.5 56.765625 -47.09375 C 55.816406 -48.695312 54.34375 -50.125 52.34375 -51.375 C 50.34375 -52.625 47.644531 -53.25 44.25 -53.25 C 40.75 -53.25 38 -52.625 36 -51.375 C 34 -50.125 32.523438 -48.695312 31.578125 -47.09375 C 30.628906 -45.5 30.03125 -44.078125 29.78125 -42.828125 C 29.53125 -41.578125 29.40625 -40.953125 29.40625 -40.953125 Z M 80.546875 -34.5 C 80.546875 -33.800781 80.519531 -33.097656 80.46875 -32.390625 C 80.425781 -31.691406 80.40625 -30.992188 80.40625 -30.296875 L 29.09375 -30.296875 C 29.09375 -27.796875 29.664062 -25.320312 30.8125 -22.875 C 31.96875 -20.425781 33.617188 -18.425781 35.765625 -16.875 C 37.921875 -15.320312 40.445312 -14.546875 43.34375 -14.546875 C 47.34375 -14.546875 50.492188 -15.617188 52.796875 -17.765625 C 55.097656 -19.921875 56.300781 -22.195312 56.40625 -24.59375 L 79.34375 -24.59375 C 77.445312 -15.894531 73.25 -9.367188 66.75 -5.015625 C 60.25 -0.671875 52.597656 1.5 43.796875 1.5 C 36.203125 1.5 29.503906 0.078125 23.703125 -2.765625 C 17.898438 -5.617188 13.375 -9.617188 10.125 -14.765625 C 6.875 -19.921875 5.25 -26 5.25 -33 C 5.25 -39.894531 6.921875 -45.941406 10.265625 -51.140625 C 13.617188 -56.347656 18.195312 -60.398438 24 -63.296875 C 29.800781 -66.203125 36.398438 -67.65625 43.796875 -67.65625 C 50.492188 -67.65625 56.617188 -66.351562 62.171875 -63.75 C 67.722656 -61.144531 72.171875 -57.394531 75.515625 -52.5 C 78.867188 -47.601562 80.546875 -41.601562 80.546875 -34.5 Z M 80.546875 -34.5 "/></g></g></g><g fill="#49602d" fill-opacity="1"><g transform="translate(648.299908, 305.05656)"><g><path d="M 29.40625 -40.953125 L 58.953125 -40.953125 C 58.953125 -40.953125 58.828125 -41.578125 58.578125 -42.828125 C 58.328125 -44.078125 57.722656 -45.5 56.765625 -47.09375 C 55.816406 -48.695312 54.34375 -50.125 52.34375 -51.375 C 50.34375 -52.625 47.644531 -53.25 44.25 -53.25 C 40.75 -53.25 38 -52.625 36 -51.375 C 34 -50.125 32.523438 -48.695312 31.578125 -47.09375 C 30.628906 -45.5 30.03125 -44.078125 29.78125 -42.828125 C 29.53125 -41.578125 29.40625 -40.953125 29.40625 -40.953125 Z M 80.546875 -34.5 C 80.546875 -33.800781 80.519531 -33.097656 80.46875 -32.390625 C 80.425781 -31.691406 80.40625 -30.992188 80.40625 -30.296875 L 29.09375 -30.296875 C 29.09375 -27.796875 29.664062 -25.320312 30.8125 -22.875 C 31.96875 -20.425781 33.617188 -18.425781 35.765625 -16.875 C 37.921875 -15.320312 40.445312 -14.546875 43.34375 -14.546875 C 47.34375 -14.546875 50.492188 -15.617188 52.796875 -17.765625 C 55.097656 -19.921875 56.300781 -22.195312 56.40625 -24.59375 L 79.34375 -24.59375 C 77.445312 -15.894531 73.25 -9.367188 66.75 -5.015625 C 60.25 -0.671875 52.597656 1.5 43.796875 1.5 C 36.203125 1.5 29.503906 0.078125 23.703125 -2.765625 C 17.898438 -5.617188 13.375 -9.617188 10.125 -14.765625 C 6.875 -19.921875 5.25 -26 5.25 -33 C 5.25 -39.894531 6.921875 -45.941406 10.265625 -51.140625 C 13.617188 -56.347656 18.195312 -60.398438 24 -63.296875 C 29.800781 -66.203125 36.398438 -67.65625 43.796875 -67.65625 C 50.492188 -67.65625 56.617188 -66.351562 62.171875 -63.75 C 67.722656 -61.144531 72.171875 -57.394531 75.515625 -52.5 C 78.867188 -47.601562 80.546875 -41.601562 80.546875 -34.5 Z M 80.546875 -34.5 "/></g></g></g><g fill="#49602d" fill-opacity="1"><g transform="translate(326.675377, 385.563314)"><g><path d="M 27.921875 -43.515625 L 27.921875 0 L 15.921875 0 L 15.921875 -43.515625 L 0.40625 -43.515625 L 0.40625 -54.40625 L 43.4375 -54.40625 L 43.4375 -43.515625 Z M 27.921875 -43.515625 "/></g></g></g><g fill="#49602d" fill-opacity="1"><g transform="translate(434.511321, 385.563314)"><g><path d="M 36.3125 -10.875 L 36.3125 0 L 4.796875 0 L 4.796875 -54.40625 L 36.3125 -54.40625 L 36.3125 -43.515625 L 16.796875 -43.515625 L 16.796875 -32.71875 L 35.515625 -32.71875 L 35.515625 -21.84375 L 16.796875 -21.84375 L 16.796875 -10.875 Z M 36.3125 -10.875 "/></g></g></g><g fill="#49602d" fill-opacity="1"><g transform="translate(539.627531, 385.563314)"><g><path d="M 44.078125 -18.484375 L 57.4375 -18.484375 C 56.207031 -14.742188 54.285156 -11.421875 51.671875 -8.515625 C 49.066406 -5.609375 45.976562 -3.328125 42.40625 -1.671875 C 38.832031 -0.0234375 34.960938 0.796875 30.796875 0.796875 C 26.960938 0.796875 23.347656 0.078125 19.953125 -1.359375 C 16.566406 -2.796875 13.582031 -4.804688 11 -7.390625 C 8.414062 -9.984375 6.398438 -12.972656 4.953125 -16.359375 C 3.515625 -19.742188 2.796875 -23.359375 2.796875 -27.203125 C 2.796875 -31.035156 3.515625 -34.644531 4.953125 -38.03125 C 6.398438 -41.425781 8.414062 -44.414062 11 -47 C 13.582031 -49.582031 16.566406 -51.59375 19.953125 -53.03125 C 23.347656 -54.476562 26.960938 -55.203125 30.796875 -55.203125 C 34.960938 -55.203125 38.816406 -54.375 42.359375 -52.71875 C 45.910156 -51.0625 48.988281 -48.804688 51.59375 -45.953125 C 54.207031 -43.109375 56.128906 -39.816406 57.359375 -36.078125 L 44 -36.078125 C 42.875 -38.535156 41.082031 -40.46875 38.625 -41.875 C 36.175781 -43.289062 33.566406 -44 30.796875 -44 C 27.867188 -44 25.203125 -43.238281 22.796875 -41.71875 C 20.398438 -40.195312 18.492188 -38.171875 17.078125 -35.640625 C 15.660156 -33.109375 14.953125 -30.296875 14.953125 -27.203125 C 14.953125 -24.109375 15.660156 -21.289062 17.078125 -18.75 C 18.492188 -16.21875 20.398438 -14.191406 22.796875 -12.671875 C 25.203125 -11.160156 27.867188 -10.40625 30.796875 -10.40625 C 33.628906 -10.40625 36.269531 -11.148438 38.71875 -12.640625 C 41.175781 -14.128906 42.960938 -16.078125 44.078125 -18.484375 Z M 44.078125 -18.484375 "/></g></g></g><g fill="#49602d" fill-opacity="1"><g transform="translate(663.061944, 385.563314)"><g><path d="M 34.71875 -54.40625 L 47.515625 -54.40625 L 47.515625 0 L 34.71875 0 L 34.71875 -21.84375 L 16.796875 -21.84375 L 16.796875 0 L 4.796875 0 L 4.796875 -54.40625 L 16.796875 -54.40625 L 16.796875 -32.71875 L 34.71875 -32.71875 Z M 34.71875 -54.40625 "/></g></g></g></svg>